v 0.15 0 0
v -0.847559 0.0698291 0
l 1 2
v 0.226658 0 0.315669
v -0.00932639 0 -0.656088
l 3 4
v 0.220244 0.000448966 0.315669
v 1.2178 -0.0693801 0.315669
l 5 6
v 0.135 -0.00105 0
v 1.13256 0.0687791 0
l 7 8
v 0.226658 0 0.315669
v -0.770901 -0.069829 0.315669
l 9 10
v 0.12 -0.002025 0
v 1.11789 0.0628381 0
l 11 12
v 0.220244 -0.000448966 0.315669
v -0.77765 -0.0653121 0.315669
l 13 14
v 0.105 -0.002925 0
v 1.1032 0.0569673 0
l 15 16
v 0.21383 -0.000865862 0.315669
v -0.784374 -0.0607582 0.315669
l 17 18
v 0.09 -0.00375 0
v 1.08849 0.051167 0
l 19 20
v 0.207417 -0.00125069 0.315669
v -0.791074 -0.0561676 0.315669
l 21 22
v 0.075 -0.004425 0
v 1.07399 0.0405295 0
l 23 24
v 0.201003 -0.00160345 0.315669
v -0.797986 -0.046558 0.315669
l 25 26
v 0.06 -0.00495 0
v 1.05939 0.0300286 0
l 27 28
v 0.194589 -0.00189207 0.315669
v -0.804799 -0.0368706 0.315669
l 29 30
v 0.045 -0.00525 0
v 1.0448 0.014746 0
l 31 32
v 0.188175 -0.00211655 0.315669
v -0.811625 -0.0221126 0.315669
l 33 34
v 0.03 -0.0051 0
v 1.02995 -0.0150995 0
l 35 36
v 0.181761 -0.00224483 0.315669
v -0.818189 0.00775467 0.315669
l 37 38
v 0.015 -0.00405 0
v 1.01256 -0.0738791 0
l 39 40
v 0.175348 -0.00218069 0.315669
v -0.822211 0.0676483 0.315669
l 41 42
v 0.0075 -0.003 0
v 0.997842 -0.141648 0
l 43 44
v 0.168934 -0.00173172 0.315669
v -0.821408 0.136916 0.315669
l 45 46
v 0.00375 -0.0021 0
v 0.976137 -0.235473 0
l 47 48
v 0.165727 -0.00128276 0.315669
v -0.80666 0.232091 0.315669
l 49 50
v 0 0 0
v 0.872506 -0.488603 0
l 51 52
v 0.16252 0 0.315669
v -0.29522 0 -0.573417
l 53 54
v 0.164124 -0.000897931 0.315669
v -0.708383 0.487704 0.315669
l 55 56
v 0.00375 0.0021 0
v -0.868756 -0.486503 0
l 57 58
v 0.16252 0 0.315669
v 1.03503 0.488602 0.315669
l 59 60
v 0.0075 0.003 0
v -0.964887 -0.230373 0
l 61 62
v 0.164124 0.000897931 0.315669
v 1.13651 0.234272 0.315669
l 63 64
v 0.015 0.00405 0
v -0.975342 -0.134598 0
l 65 66
v 0.165727 0.00128276 0.315669
v 1.15607 0.139931 0.315669
l 67 68
v 0.03 0.0051 0
v -0.967559 -0.0647291 0
l 69 70
v 0.168934 0.00173172 0.315669
v 1.16649 0.0715608 0.315669
l 71 72
v 0.045 0.00525 0
v -0.95495 -0.00474948 0
l 73 74
v 0.175348 0.00218069 0.315669
v 1.1753 0.0121802 0.315669
l 75 76
v 0.06 0.00495 0
v -0.9398 0.024946 0
l 77 78
v 0.181761 0.00224483 0.315669
v 1.18156 -0.0177512 0.315669
l 79 80
v 0.075 0.004425 0
v -0.924388 0.0394036 0
l 81 82
v 0.188175 0.00211655 0.315669
v 1.18756 -0.032862 0.315669
l 83 84
v 0.09 0.00375 0
v -0.908989 0.0487045 0
l 85 86
v 0.194589 0.00189207 0.315669
v 1.19358 -0.0430625 0.315669
l 87 88
v 0.105 0.002925 0
v -0.893491 0.057842 0
l 89 90
v 0.201003 0.00160345 0.315669
v 1.19949 -0.0533135 0.315669
l 91 92
v 0.12 0.002025 0
v -0.878205 0.0619173 0
l 93 94
v 0.207417 0.00125069 0.315669
v 1.20562 -0.0586416 0.315669
l 95 96
v 0.220244 0.000448966 0.315669
v -0.77765 0.0653121 0.315669
l 97 98
v 0.135 0.00105 0
v -0.862894 0.0659131 0
l 99 100
