# Wavefront OBJ file written 2026-08-27T08:01:12
o tailfin_edgeMesh

# points : 48
# lines  : 50

# <points count="48">
v 0.15 0 0
v 0.226658 0 0.315669
v 0 0 0
v 0.16252 0 0.315669
v 0.135 0.00105 0
v 0.220244 0.000448966 0.315669
v 0.135 -0.00105 0
v 0.220244 -0.000448966 0.315669
v 0.12 -0.002025 0
v 0.21383 -0.000865862 0.315669
v 0.105 -0.002925 0
v 0.207417 -0.00125069 0.315669
v 0.09 -0.00375 0
v 0.201003 -0.00160345 0.315669
v 0.075 -0.004425 0
v 0.194589 -0.00189207 0.315669
v 0.06 -0.00495 0
v 0.188175 -0.00211655 0.315669
v 0.045 -0.00525 0
v 0.181761 -0.00224483 0.315669
v 0.03 -0.0051 0
v 0.175348 -0.00218069 0.315669
v 0.015 -0.00405 0
v 0.168934 -0.00173172 0.315669
v 0.0075 -0.003 0
v 0.165727 -0.00128276 0.315669
v 0.00375 -0.0021 0
v 0.164124 -0.000897931 0.315669
v 0.00375 0.0021 0
v 0.164124 0.000897931 0.315669
v 0.0075 0.003 0
v 0.165727 0.00128276 0.315669
v 0.015 0.00405 0
v 0.168934 0.00173172 0.315669
v 0.03 0.0051 0
v 0.175348 0.00218069 0.315669
v 0.045 0.00525 0
v 0.181761 0.00224483 0.315669
v 0.06 0.00495 0
v 0.188175 0.00211655 0.315669
v 0.075 0.004425 0
v 0.194589 0.00189207 0.315669
v 0.09 0.00375 0
v 0.201003 0.00160345 0.315669
v 0.105 0.002925 0
v 0.207417 0.00125069 0.315669
v 0.12 0.002025 0
v 0.21383 0.000865862 0.315669
# </points>

# <edges count="50">
l 1 5
l 2 1
l 6 2
l 7 1
l 2 8
l 9 7
l 8 10
l 11 9
l 10 12
l 13 11
l 12 14
l 15 13
l 14 16
l 17 15
l 16 18
l 19 17
l 18 20
l 21 19
l 20 22
l 23 21
l 22 24
l 25 23
l 24 26
l 27 25
l 26 28
l 3 27
l 4 3
l 28 4
l 29 3
l 4 30
l 31 29
l 30 32
l 33 31
l 32 34
l 35 33
l 34 36
l 37 35
l 36 38
l 39 37
l 38 40
l 41 39
l 40 42
l 43 41
l 42 44
l 45 43
l 44 46
l 47 45
l 46 48
l 6 48
l 5 47
# </edges>
