v 0.15 7.5e-05 0
v 0.1425 0.000525 0
l 1 2
v 0.244097 3.45e-05 0.281415
v 0.15 7.5e-05 0
l 3 4
v 0.240647 0.0002415 0.281415
v 0.244097 3.45e-05 0.281415
l 5 6
v 0.1425 0.000525 0
v 0.135 0.00105 0
l 7 8
v 0.237197 0.000483 0.281415
v 0.240647 0.0002415 0.281415
l 9 10
v 0.135 0.00105 0
v 0.12 0.002025 0
l 11 12
v 0.230297 0.0009315 0.281415
v 0.237197 0.000483 0.281415
l 13 14
v 0.12 0.002025 0
v 0.105 0.002925 0
l 15 16
v 0.223397 0.0013455 0.281415
v 0.230297 0.0009315 0.281415
l 17 18
v 0.105 0.002925 0
v 0.09 0.00375 0
l 19 20
v 0.216497 0.001725 0.281415
v 0.223397 0.0013455 0.281415
l 21 22
v 0.09 0.00375 0
v 0.075 0.004425 0
l 23 24
v 0.209597 0.0020355 0.281415
v 0.216497 0.001725 0.281415
l 25 26
v 0.075 0.004425 0
v 0.06 0.00495 0
l 27 28
v 0.202697 0.002277 0.281415
v 0.209597 0.0020355 0.281415
l 29 30
v 0.06 0.00495 0
v 0.045 0.00525 0
l 31 32
v 0.195797 0.002415 0.281415
v 0.202697 0.002277 0.281415
l 33 34
v 0.045 0.00525 0
v 0.03 0.0051 0
l 35 36
v 0.188897 0.002346 0.281415
v 0.195797 0.002415 0.281415
l 37 38
v 0.03 0.0051 0
v 0.015 0.00405 0
l 39 40
v 0.181997 0.001863 0.281415
v 0.188897 0.002346 0.281415
l 41 42
v 0.015 0.00405 0
v 0.0075 0.003 0
l 43 44
v 0.178547 0.00138 0.281415
v 0.181997 0.001863 0.281415
l 45 46
v 0.0075 0.003 0
v 0.00375 0.0021 0
l 47 48
v 0.176822 0.000966 0.281415
v 0.178547 0.00138 0.281415
l 49 50
v 0 0 0
v 0.175097 0 0.281415
l 51 52
v 0.00375 0.0021 0
v 0 0 0
l 53 54
v 0.175097 0 0.281415
v 0.176822 0.000966 0.281415
l 55 56
v 0 0 0
v 0.00375 -0.0021 0
l 57 58
v 0.176822 -0.000966 0.281415
v 0.175097 0 0.281415
l 59 60
v 0.00375 -0.0021 0
v 0.0075 -0.003 0
l 61 62
v 0.178547 -0.00138 0.281415
v 0.176822 -0.000966 0.281415
l 63 64
v 0.0075 -0.003 0
v 0.015 -0.00405 0
l 65 66
v 0.181997 -0.001863 0.281415
v 0.178547 -0.00138 0.281415
l 67 68
v 0.015 -0.00405 0
v 0.03 -0.0051 0
l 69 70
v 0.188897 -0.002346 0.281415
v 0.181997 -0.001863 0.281415
l 71 72
v 0.03 -0.0051 0
v 0.045 -0.00525 0
l 73 74
v 0.195797 -0.002415 0.281415
v 0.188897 -0.002346 0.281415
l 75 76
v 0.045 -0.00525 0
v 0.06 -0.00495 0
l 77 78
v 0.202697 -0.002277 0.281415
v 0.195797 -0.002415 0.281415
l 79 80
v 0.06 -0.00495 0
v 0.075 -0.004425 0
l 81 82
v 0.209597 -0.0020355 0.281415
v 0.202697 -0.002277 0.281415
l 83 84
v 0.075 -0.004425 0
v 0.09 -0.00375 0
l 85 86
v 0.216497 -0.001725 0.281415
v 0.209597 -0.0020355 0.281415
l 87 88
v 0.09 -0.00375 0
v 0.105 -0.002925 0
l 89 90
v 0.223397 -0.0013455 0.281415
v 0.216497 -0.001725 0.281415
l 91 92
v 0.105 -0.002925 0
v 0.12 -0.002025 0
l 93 94
v 0.230297 -0.0009315 0.281415
v 0.223397 -0.0013455 0.281415
l 95 96
v 0.12 -0.002025 0
v 0.135 -0.00105 0
l 97 98
v 0.237197 -0.000483 0.281415
v 0.230297 -0.0009315 0.281415
l 99 100
v 0.135 -0.00105 0
v 0.1425 -0.000525 0
l 101 102
v 0.240647 -0.0002415 0.281415
v 0.237197 -0.000483 0.281415
l 103 104
v 0.15 -7.5e-05 0
v 0.244097 -3.45e-05 0.281415
l 105 106
v 0.1425 -0.000525 0
v 0.15 -7.5e-05 0
l 107 108
v 0.244097 -3.45e-05 0.281415
v 0.240647 -0.0002415 0.281415
l 109 110
v 0.15 -7.5e-05 0
v 0.15 7.5e-05 0
l 111 112
v 0.244097 3.45e-05 0.281415
v 0.244097 -3.45e-05 0.281415
l 113 114
