# Wavefront OBJ file written 2026-10-05T23:17:31
o tailfin_edgeMesh

# points : 54
# lines  : 57

# <points count="54">
v 0.15 7.5e-05 0
v 0.183274 3.9225e-05 0.316403
v 0.104824 0 0.316403
v 0 0 0
v 0.183274 -3.9225e-05 0.316403
v 0.15 -7.5e-05 0
v 0.1425 0.000525 0
v 0.179352 0.000274575 0.316403
v 0.135 0.00105 0
v 0.175429 0.00054915 0.316403
v 0.12 0.002025 0
v 0.167584 0.00105908 0.316403
v 0.105 0.002925 0
v 0.159739 0.00152977 0.316403
v 0.09 0.00375 0
v 0.151894 0.00196125 0.316403
v 0.075 0.004425 0
v 0.144049 0.00231427 0.316403
v 0.06 0.00495 0
v 0.136204 0.00258885 0.316403
v 0.045 0.00525 0
v 0.128359 0.00274575 0.316403
v 0.03 0.0051 0
v 0.120514 0.0026673 0.316403
v 0.015 0.00405 0
v 0.112669 0.00211815 0.316403
v 0.0075 0.003 0
v 0.108747 0.001569 0.316403
v 0.00375 0.0021 0
v 0.106785 0.0010983 0.316403
v 0.00375 -0.0021 0
v 0.106785 -0.0010983 0.316403
v 0.0075 -0.003 0
v 0.108747 -0.001569 0.316403
v 0.015 -0.00405 0
v 0.112669 -0.00211815 0.316403
v 0.03 -0.0051 0
v 0.120514 -0.0026673 0.316403
v 0.045 -0.00525 0
v 0.128359 -0.00274575 0.316403
v 0.06 -0.00495 0
v 0.136204 -0.00258885 0.316403
v 0.075 -0.004425 0
v 0.144049 -0.00231427 0.316403
v 0.09 -0.00375 0
v 0.151894 -0.00196125 0.316403
v 0.105 -0.002925 0
v 0.159739 -0.00152977 0.316403
v 0.12 -0.002025 0
v 0.167584 -0.00105908 0.316403
v 0.135 -0.00105 0
v 0.175429 -0.00054915 0.316403
v 0.1425 -0.000525 0
v 0.179352 -0.000274575 0.316403
# </points>

# <edges count="57">
l 1 7
l 2 1
l 8 2
l 7 9
l 10 8
l 9 11
l 12 10
l 11 13
l 14 12
l 13 15
l 16 14
l 15 17
l 18 16
l 17 19
l 20 18
l 19 21
l 22 20
l 21 23
l 24 22
l 23 25
l 26 24
l 25 27
l 28 26
l 27 29
l 30 28
l 4 3
l 29 4
l 3 30
l 4 31
l 32 3
l 31 33
l 34 32
l 33 35
l 36 34
l 35 37
l 38 36
l 37 39
l 40 38
l 39 41
l 42 40
l 41 43
l 44 42
l 43 45
l 46 44
l 45 47
l 48 46
l 47 49
l 50 48
l 49 51
l 52 50
l 51 53
l 54 52
l 6 5
l 53 6
l 5 54
l 6 1
l 2 5
# </edges>
