v 0.15 0 0
v -0.847559 0.0698291 0
l 1 2
v 0.15602 0 0.182149
v 0.122986 0 -0.817305
l 3 4
v 0.148779 0.000506897 0.182149
v 1.14634 -0.0693222 0.182149
l 5 6
v 0.135 -0.00105 0
v 1.13256 0.0687791 0
l 7 8
v 0.15602 0 0.182149
v -0.841538 -0.0698291 0.182149
l 9 10
v 0.12 -0.002025 0
v 1.11789 0.0628381 0
l 11 12
v 0.148779 -0.000506897 0.182149
v -0.849115 -0.0653701 0.182149
l 13 14
v 0.105 -0.002925 0
v 1.1032 0.0569673 0
l 15 16
v 0.141538 -0.000977586 0.182149
v -0.856667 -0.0608698 0.182149
l 17 18
v 0.09 -0.00375 0
v 1.08849 0.051167 0
l 19 20
v 0.134296 -0.00141207 0.182149
v -0.864195 -0.056329 0.182149
l 21 22
v 0.075 -0.004425 0
v 1.07399 0.0405295 0
l 23 24
v 0.127055 -0.00181034 0.182149
v -0.871934 -0.0467649 0.182149
l 25 26
v 0.06 -0.00495 0
v 1.05939 0.0300286 0
l 27 28
v 0.119814 -0.00213621 0.182149
v -0.879574 -0.0371148 0.182149
l 29 30
v 0.045 -0.00525 0
v 1.0448 0.014746 0
l 31 32
v 0.112572 -0.00238966 0.182149
v -0.887228 -0.0223857 0.182149
l 33 34
v 0.03 -0.0051 0
v 1.02995 -0.0150995 0
l 35 36
v 0.105331 -0.00253448 0.182149
v -0.894619 0.00746502 0.182149
l 37 38
v 0.015 -0.00405 0
v 1.01256 -0.0738791 0
l 39 40
v 0.0980894 -0.00246207 0.182149
v -0.89947 0.0673671 0.182149
l 41 42
v 0.0075 -0.003 0
v 0.997842 -0.141648 0
l 43 44
v 0.0908481 -0.00195517 0.182149
v -0.899494 0.136693 0.182149
l 45 46
v 0.00375 -0.0021 0
v 0.976137 -0.235473 0
l 47 48
v 0.0872274 -0.00144828 0.182149
v -0.88516 0.231925 0.182149
l 49 50
v 0 0 0
v 0.872506 -0.488603 0
l 51 52
v 0.0836067 0 0.182149
v -0.333549 0 -0.726686
l 53 54
v 0.085417 -0.00101379 0.182149
v -0.78709 0.487589 0.182149
l 55 56
v 0.00375 0.0021 0
v -0.868756 -0.486503 0
l 57 58
v 0.0836067 0 0.182149
v 0.956113 0.488602 0.182149
l 59 60
v 0.0075 0.003 0
v -0.964887 -0.230373 0
l 61 62
v 0.085417 0.00101379 0.182149
v 1.0578 0.234387 0.182149
l 63 64
v 0.015 0.00405 0
v -0.975342 -0.134598 0
l 65 66
v 0.0872274 0.00144828 0.182149
v 1.07757 0.140096 0.182149
l 67 68
v 0.03 0.0051 0
v -0.967559 -0.0647291 0
l 69 70
v 0.0908481 0.00195517 0.182149
v 1.08841 0.0717843 0.182149
l 71 72
v 0.045 0.00525 0
v -0.95495 -0.00474948 0
l 73 74
v 0.0980894 0.00246207 0.182149
v 1.09804 0.0124616 0.182149
l 75 76
v 0.06 0.00495 0
v -0.9398 0.024946 0
l 77 78
v 0.105331 0.00253448 0.182149
v 1.10513 -0.0174615 0.182149
l 79 80
v 0.075 0.004425 0
v -0.924388 0.0394036 0
l 81 82
v 0.112572 0.00238966 0.182149
v 1.11196 -0.0325889 0.182149
l 83 84
v 0.09 0.00375 0
v -0.908989 0.0487045 0
l 85 86
v 0.119814 0.00213621 0.182149
v 1.1188 -0.0428183 0.182149
l 87 88
v 0.105 0.002925 0
v -0.893491 0.057842 0
l 89 90
v 0.127055 0.00181034 0.182149
v 1.12555 -0.0531066 0.182149
l 91 92
v 0.12 0.002025 0
v -0.878205 0.0619173 0
l 93 94
v 0.134296 0.00141207 0.182149
v 1.1325 -0.0584802 0.182149
l 95 96
v 0.148779 0.000506897 0.182149
v -0.849115 0.0653701 0.182149
l 97 98
v 0.135 0.00105 0
v -0.862894 0.0659131 0
l 99 100
