v 0.15 7.5e-05 0
v -0.848205 0.0599672 0
l 1 2
v 0.153895 4.0875e-05 0.265354
v 0.139219 0.000169463 -0.734539
l 3 4
v 0.149807 0.000286125 0.265354
v 1.14801 -0.0596063 0.265354
l 5 6
v 0.1425 0.000525 0
v -0.855059 0.0703542 0
l 7 8
v 0.14572 0.00057225 0.265354
v 1.14328 -0.0692567 0.265354
l 9 10
v 0.135 0.00105 0
v -0.862894 0.0659131 0
l 11 12
v 0.137545 0.00110363 0.265354
v 1.13544 -0.0637595 0.265354
l 13 14
v 0.12 0.002025 0
v -0.878205 0.0619173 0
l 15 16
v 0.12937 0.00159412 0.265354
v 1.12757 -0.0582981 0.265354
l 17 18
v 0.105 0.002925 0
v -0.893491 0.057842 0
l 19 20
v 0.121195 0.00204375 0.265354
v 1.11969 -0.0528732 0.265354
l 21 22
v 0.09 0.00375 0
v -0.908989 0.0487045 0
l 23 24
v 0.11302 0.00241163 0.265354
v 1.11201 -0.0425429 0.265354
l 25 26
v 0.075 0.004425 0
v -0.924388 0.0394036 0
l 27 28
v 0.104845 0.00269775 0.265354
v 1.10423 -0.0322808 0.265354
l 29 30
v 0.06 0.00495 0
v -0.9398 0.024946 0
l 31 32
v 0.0966698 0.00286125 0.265354
v 1.09647 -0.0171348 0.265354
l 33 34
v 0.045 0.00525 0
v -0.95495 -0.00474948 0
l 35 36
v 0.0884948 0.0027795 0.265354
v 1.08844 0.012779 0.265354
l 37 38
v 0.03 0.0051 0
v -0.967559 -0.0647291 0
l 39 40
v 0.0803198 0.00220725 0.265354
v 1.07788 0.0720364 0.265354
l 41 42
v 0.015 0.00405 0
v -0.975342 -0.134598 0
l 43 44
v 0.0762323 0.001635 0.265354
v 1.06657 0.140283 0.265354
l 45 46
v 0.0075 0.003 0
v -0.964887 -0.230373 0
l 47 48
v 0.0741885 0.0011445 0.265354
v 1.04658 0.234517 0.265354
l 49 50
v 0 0 0
v 0.262358 0 0.964971
l 51 52
v 0.00375 0.0021 0
v -0.868756 -0.486503 0
l 53 54
v 0.0721448 0 0.265354
v 0.94465 0.488604 0.265354
l 55 56
v 0 0 0
v 0.872506 -0.488603 0
l 57 58
v 0.0741885 -0.0011445 0.265354
v -0.798317 0.48746 0.265354
l 59 60
v 0.00375 -0.0021 0
v 0.976137 -0.235473 0
l 61 62
v 0.0762323 -0.001635 0.265354
v -0.896155 0.231738 0.265354
l 63 64
v 0.0075 -0.003 0
v 0.997842 -0.141648 0
l 65 66
v 0.0803198 -0.00220725 0.265354
v -0.910022 0.136441 0.265354
l 67 68
v 0.015 -0.00405 0
v 1.01256 -0.0738791 0
l 69 70
v 0.0884948 -0.0027795 0.265354
v -0.909064 0.0670496 0.265354
l 71 72
v 0.03 -0.0051 0
v 1.02995 -0.0150995 0
l 73 74
v 0.0966698 -0.00286125 0.265354
v -0.90328 0.00713823 0.265354
l 75 76
v 0.045 -0.00525 0
v 1.0448 0.014746 0
l 77 78
v 0.104845 -0.00269775 0.265354
v -0.894955 -0.0226938 0.265354
l 79 80
v 0.06 -0.00495 0
v 1.05939 0.0300286 0
l 81 82
v 0.11302 -0.00241163 0.265354
v -0.886368 -0.0373902 0.265354
l 83 84
v 0.075 -0.004425 0
v 1.07399 0.0405295 0
l 85 86
v 0.121195 -0.00204375 0.265354
v -0.877794 -0.0469983 0.265354
l 87 88
v 0.09 -0.00375 0
v 1.08849 0.051167 0
l 89 90
v 0.12937 -0.00159412 0.265354
v -0.869121 -0.0565111 0.265354
l 91 92
v 0.105 -0.002925 0
v 1.1032 0.0569673 0
l 93 94
v 0.137545 -0.00110363 0.265354
v -0.86066 -0.0609959 0.265354
l 95 96
v 0.12 -0.002025 0
v 1.11789 0.0628381 0
l 97 98
v 0.14572 -0.00057225 0.265354
v -0.852174 -0.0654354 0.265354
l 99 100
v 0.135 -0.00105 0
v 1.13256 0.0687792 0
l 101 102
v 0.149807 -0.000286125 0.265354
v -0.847752 -0.0701151 0.265354
l 103 104
v 0.15 -7.5e-05 0
v 0.164676 5.35881e-05 0.999892
l 105 106
v 0.1425 -0.000525 0
v 1.1407 0.0593672 0
l 107 108
v 0.153895 -4.0875e-05 0.265354
v -0.84431 -0.0599333 0.265354
l 109 110
v 0.15 -7.5e-05 0
v 0.15 0.999925 0
l 111 112
v 0.153895 4.0875e-05 0.265354
v 0.153895 -0.999959 0.265354
l 113 114
