v 0.15 0 0
v 0.135 0.00105 0
l 1 2
v 0.154913 0 0.177726
v 0.15 0 0
l 3 4
v 0.147257 0.000535862 0.177726
v 0.154913 0 0.177726
l 5 6
v 0.135 -0.00105 0
v 0.15 0 0
l 7 8
v 0.154913 0 0.177726
v 0.147257 -0.000535862 0.177726
l 9 10
v 0.12 -0.002025 0
v 0.135 -0.00105 0
l 11 12
v 0.147257 -0.000535862 0.177726
v 0.139602 -0.00103345 0.177726
l 13 14
v 0.105 -0.002925 0
v 0.12 -0.002025 0
l 15 16
v 0.139602 -0.00103345 0.177726
v 0.131947 -0.00149276 0.177726
l 17 18
v 0.09 -0.00375 0
v 0.105 -0.002925 0
l 19 20
v 0.131947 -0.00149276 0.177726
v 0.124292 -0.00191379 0.177726
l 21 22
v 0.075 -0.004425 0
v 0.09 -0.00375 0
l 23 24
v 0.124292 -0.00191379 0.177726
v 0.116637 -0.00225828 0.177726
l 25 26
v 0.06 -0.00495 0
v 0.075 -0.004425 0
l 27 28
v 0.116637 -0.00225828 0.177726
v 0.108982 -0.00252621 0.177726
l 29 30
v 0.045 -0.00525 0
v 0.06 -0.00495 0
l 31 32
v 0.108982 -0.00252621 0.177726
v 0.101326 -0.00267931 0.177726
l 33 34
v 0.03 -0.0051 0
v 0.045 -0.00525 0
l 35 36
v 0.101326 -0.00267931 0.177726
v 0.0936713 -0.00260276 0.177726
l 37 38
v 0.015 -0.00405 0
v 0.03 -0.0051 0
l 39 40
v 0.0936713 -0.00260276 0.177726
v 0.0860161 -0.0020669 0.177726
l 41 42
v 0.0075 -0.003 0
v 0.015 -0.00405 0
l 43 44
v 0.0860161 -0.0020669 0.177726
v 0.0821885 -0.00153103 0.177726
l 45 46
v 0.00375 -0.0021 0
v 0.0075 -0.003 0
l 47 48
v 0.0821885 -0.00153103 0.177726
v 0.0802747 -0.00107172 0.177726
l 49 50
v 0 0 0
v 0.00375 -0.0021 0
l 51 52
v 0.0783609 0 0.177726
v 0 0 0
l 53 54
v 0.0802747 -0.00107172 0.177726
v 0.0783609 0 0.177726
l 55 56
v 0.00375 0.0021 0
v 0 0 0
l 57 58
v 0.0783609 0 0.177726
v 0.0802747 0.00107172 0.177726
l 59 60
v 0.0075 0.003 0
v 0.00375 0.0021 0
l 61 62
v 0.0802747 0.00107172 0.177726
v 0.0821885 0.00153103 0.177726
l 63 64
v 0.015 0.00405 0
v 0.0075 0.003 0
l 65 66
v 0.0821885 0.00153103 0.177726
v 0.0860161 0.0020669 0.177726
l 67 68
v 0.03 0.0051 0
v 0.015 0.00405 0
l 69 70
v 0.0860161 0.0020669 0.177726
v 0.0936713 0.00260276 0.177726
l 71 72
v 0.045 0.00525 0
v 0.03 0.0051 0
l 73 74
v 0.0936713 0.00260276 0.177726
v 0.101326 0.00267931 0.177726
l 75 76
v 0.06 0.00495 0
v 0.045 0.00525 0
l 77 78
v 0.101326 0.00267931 0.177726
v 0.108982 0.00252621 0.177726
l 79 80
v 0.075 0.004425 0
v 0.06 0.00495 0
l 81 82
v 0.108982 0.00252621 0.177726
v 0.116637 0.00225828 0.177726
l 83 84
v 0.09 0.00375 0
v 0.075 0.004425 0
l 85 86
v 0.116637 0.00225828 0.177726
v 0.124292 0.00191379 0.177726
l 87 88
v 0.105 0.002925 0
v 0.09 0.00375 0
l 89 90
v 0.124292 0.00191379 0.177726
v 0.131947 0.00149276 0.177726
l 91 92
v 0.12 0.002025 0
v 0.105 0.002925 0
l 93 94
v 0.131947 0.00149276 0.177726
v 0.139602 0.00103345 0.177726
l 95 96
v 0.147257 0.000535862 0.177726
v 0.139602 0.00103345 0.177726
l 97 98
v 0.135 0.00105 0
v 0.12 0.002025 0
l 99 100
