# Wavefront OBJ file written 2026-10-05T23:12:01
o tailfin_edgeMesh

# points : 54
# lines  : 57

# <points count="54">
v 0.15 7.5e-05 0
v 0.153895 4.0875e-05 0.265354
v 0.0721448 0 0.265354
v 0 0 0
v 0.153895 -4.0875e-05 0.265354
v 0.15 -7.5e-05 0
v 0.1425 0.000525 0
v 0.149807 0.000286125 0.265354
v 0.135 0.00105 0
v 0.14572 0.00057225 0.265354
v 0.12 0.002025 0
v 0.137545 0.00110363 0.265354
v 0.105 0.002925 0
v 0.12937 0.00159412 0.265354
v 0.09 0.00375 0
v 0.121195 0.00204375 0.265354
v 0.075 0.004425 0
v 0.11302 0.00241163 0.265354
v 0.06 0.00495 0
v 0.104845 0.00269775 0.265354
v 0.045 0.00525 0
v 0.0966698 0.00286125 0.265354
v 0.03 0.0051 0
v 0.0884948 0.0027795 0.265354
v 0.015 0.00405 0
v 0.0803198 0.00220725 0.265354
v 0.0075 0.003 0
v 0.0762323 0.001635 0.265354
v 0.00375 0.0021 0
v 0.0741885 0.0011445 0.265354
v 0.00375 -0.0021 0
v 0.0741885 -0.0011445 0.265354
v 0.0075 -0.003 0
v 0.0762323 -0.001635 0.265354
v 0.015 -0.00405 0
v 0.0803198 -0.00220725 0.265354
v 0.03 -0.0051 0
v 0.0884948 -0.0027795 0.265354
v 0.045 -0.00525 0
v 0.0966698 -0.00286125 0.265354
v 0.06 -0.00495 0
v 0.104845 -0.00269775 0.265354
v 0.075 -0.004425 0
v 0.11302 -0.00241163 0.265354
v 0.09 -0.00375 0
v 0.121195 -0.00204375 0.265354
v 0.105 -0.002925 0
v 0.12937 -0.00159412 0.265354
v 0.12 -0.002025 0
v 0.137545 -0.00110363 0.265354
v 0.135 -0.00105 0
v 0.14572 -0.00057225 0.265354
v 0.1425 -0.000525 0
v 0.149807 -0.000286125 0.265354
# </points>

# <edges count="57">
l 1 7
l 2 1
l 8 2
l 7 9
l 10 8
l 9 11
l 12 10
l 11 13
l 14 12
l 13 15
l 16 14
l 15 17
l 18 16
l 17 19
l 20 18
l 19 21
l 22 20
l 21 23
l 24 22
l 23 25
l 26 24
l 25 27
l 28 26
l 27 29
l 30 28
l 4 3
l 29 4
l 3 30
l 4 31
l 32 3
l 31 33
l 34 32
l 33 35
l 36 34
l 35 37
l 38 36
l 37 39
l 40 38
l 39 41
l 42 40
l 41 43
l 44 42
l 43 45
l 46 44
l 45 47
l 48 46
l 47 49
l 50 48
l 49 51
l 52 50
l 51 53
l 54 52
l 6 5
l 53 6
l 5 54
l 6 1
l 2 5
# </edges>
