v 0.15 0 0
v -0.847559 0.0698291 0
l 1 2
v 0.159165 0 0.239492
v 0.120923 0 -0.759777
l 3 4
v 0.152958 0.000434483 0.239492
v 1.15052 -0.0693948 0.239492
l 5 6
v 0.135 -0.00105 0
v 1.13256 0.0687791 0
l 7 8
v 0.159165 0 0.239492
v -0.838394 -0.0698293 0.239492
l 9 10
v 0.12 -0.002025 0
v 1.11789 0.0628381 0
l 11 12
v 0.152958 -0.000434483 0.239492
v -0.844936 -0.0652976 0.239492
l 13 14
v 0.105 -0.002925 0
v 1.1032 0.0569673 0
l 15 16
v 0.146752 -0.000837931 0.239492
v -0.851453 -0.0607302 0.239492
l 17 18
v 0.09 -0.00375 0
v 1.08849 0.051167 0
l 19 20
v 0.140545 -0.00121034 0.239492
v -0.857946 -0.0561273 0.239492
l 21 22
v 0.075 -0.004425 0
v 1.07399 0.0405295 0
l 23 24
v 0.134338 -0.00155172 0.239492
v -0.864651 -0.0465063 0.239492
l 25 26
v 0.06 -0.00495 0
v 1.05939 0.0300286 0
l 27 28
v 0.128131 -0.00183103 0.239492
v -0.871257 -0.0368096 0.239492
l 29 30
v 0.045 -0.00525 0
v 1.0448 0.014746 0
l 31 32
v 0.121924 -0.00204828 0.239492
v -0.877876 -0.0220443 0.239492
l 33 34
v 0.03 -0.0051 0
v 1.02995 -0.0150995 0
l 35 36
v 0.115717 -0.00217241 0.239492
v -0.884233 0.00782707 0.239492
l 37 38
v 0.015 -0.00405 0
v 1.01256 -0.0738791 0
l 39 40
v 0.10951 -0.00211034 0.239492
v -0.888049 0.0677188 0.239492
l 41 42
v 0.0075 -0.003 0
v 0.997842 -0.141648 0
l 43 44
v 0.103303 -0.00167586 0.239492
v -0.887038 0.136972 0.239492
l 45 46
v 0.00375 -0.0021 0
v 0.976137 -0.235473 0
l 47 48
v 0.1002 -0.00124138 0.239492
v -0.872187 0.232131 0.239492
l 49 50
v 0 0 0
v 0.872506 -0.488603 0
l 51 52
v 0.0970964 0 0.239492
v -0.278626 0 -0.687241
l 53 54
v 0.0986481 -0.000868966 0.239492
v -0.773858 0.487734 0.239492
l 55 56
v 0.00375 0.0021 0
v -0.868756 -0.486503 0
l 57 58
v 0.0970964 0 0.239492
v 0.969603 0.488603 0.239492
l 59 60
v 0.0075 0.003 0
v -0.964887 -0.230373 0
l 61 62
v 0.0986481 0.000868966 0.239492
v 1.07104 0.234242 0.239492
l 63 64
v 0.015 0.00405 0
v -0.975342 -0.134598 0
l 65 66
v 0.1002 0.00124138 0.239492
v 1.09054 0.139889 0.239492
l 67 68
v 0.03 0.0051 0
v -0.967559 -0.0647291 0
l 69 70
v 0.103303 0.00167586 0.239492
v 1.10086 0.071505 0.239492
l 71 72
v 0.045 0.00525 0
v -0.95495 -0.00474948 0
l 73 74
v 0.10951 0.00211034 0.239492
v 1.10946 0.0121098 0.239492
l 75 76
v 0.06 0.00495 0
v -0.9398 0.024946 0
l 77 78
v 0.115717 0.00217241 0.239492
v 1.11552 -0.0178236 0.239492
l 79 80
v 0.075 0.004425 0
v -0.924388 0.0394036 0
l 81 82
v 0.121924 0.00204828 0.239492
v 1.12131 -0.0329303 0.239492
l 83 84
v 0.09 0.00375 0
v -0.908989 0.0487045 0
l 85 86
v 0.128131 0.00183103 0.239492
v 1.12712 -0.0431235 0.239492
l 87 88
v 0.105 0.002925 0
v -0.893491 0.057842 0
l 89 90
v 0.134338 0.00155172 0.239492
v 1.13283 -0.0533652 0.239492
l 91 92
v 0.12 0.002025 0
v -0.878205 0.0619173 0
l 93 94
v 0.140545 0.00121034 0.239492
v 1.13875 -0.0586819 0.239492
l 95 96
v 0.152958 0.000434483 0.239492
v -0.844936 0.0652976 0.239492
l 97 98
v 0.135 0.00105 0
v -0.862894 0.0659131 0
l 99 100
