v 0.15 7.5e-05 0
v -0.848205 0.0599672 0
l 1 2
v 0.187102 5.025e-05 0.249248
v 0.039868 0.000148467 -0.739854
l 3 4
v 0.182077 0.00035175 0.249248
v 1.18028 -0.0595405 0.249248
l 5 6
v 0.1425 0.000525 0
v -0.855059 0.0703542 0
l 7 8
v 0.177052 0.0007035 0.249248
v 1.17461 -0.0691256 0.249248
l 9 10
v 0.135 0.00105 0
v -0.862894 0.0659131 0
l 11 12
v 0.167002 0.00135675 0.249248
v 1.1649 -0.0635064 0.249248
l 13 14
v 0.12 0.002025 0
v -0.878205 0.0619173 0
l 15 16
v 0.156952 0.00195975 0.249248
v 1.15516 -0.0579325 0.249248
l 17 18
v 0.105 0.002925 0
v -0.893491 0.057842 0
l 19 20
v 0.146902 0.0025125 0.249248
v 1.14539 -0.0524045 0.249248
l 21 22
v 0.09 0.00375 0
v -0.908989 0.0487045 0
l 23 24
v 0.136852 0.00296475 0.249248
v 1.13584 -0.0419898 0.249248
l 25 26
v 0.075 0.004425 0
v -0.924388 0.0394036 0
l 27 28
v 0.126802 0.0033165 0.249248
v 1.12619 -0.0316621 0.249248
l 29 30
v 0.06 0.00495 0
v -0.9398 0.024946 0
l 31 32
v 0.116752 0.0035175 0.249248
v 1.11655 -0.0164785 0.249248
l 33 34
v 0.045 0.00525 0
v -0.95495 -0.00474948 0
l 35 36
v 0.106702 0.003417 0.249248
v 1.10665 0.0134165 0.249248
l 37 38
v 0.03 0.0051 0
v -0.967559 -0.0647291 0
l 39 40
v 0.0966521 0.0027135 0.249248
v 1.09421 0.0725426 0.249248
l 41 42
v 0.015 0.00405 0
v -0.975342 -0.134598 0
l 43 44
v 0.0916271 0.00201 0.249248
v 1.08197 0.140658 0.249248
l 45 46
v 0.0075 0.003 0
v -0.964887 -0.230373 0
l 47 48
v 0.0891146 0.001407 0.249248
v 1.0615 0.23478 0.249248
l 49 50
v 0 0 0
v 0.328207 0 0.944606
l 51 52
v 0.00375 0.0021 0
v -0.868756 -0.486503 0
l 53 54
v 0.0866021 0 0.249248
v 0.959108 0.488603 0.249248
l 55 56
v 0 0 0
v 0.872506 -0.488603 0
l 57 58
v 0.0891146 -0.001407 0.249248
v -0.783391 0.487196 0.249248
l 59 60
v 0.00375 -0.0021 0
v 0.976137 -0.235473 0
l 61 62
v 0.0916271 -0.00201 0.249248
v -0.88076 0.231363 0.249248
l 63 64
v 0.0075 -0.003 0
v 0.997842 -0.141648 0
l 65 66
v 0.0966521 -0.0027135 0.249248
v -0.89369 0.135934 0.249248
l 67 68
v 0.015 -0.00405 0
v 1.01256 -0.0738791 0
l 69 70
v 0.106702 -0.003417 0.249248
v -0.890857 0.0664121 0.249248
l 71 72
v 0.03 -0.0051 0
v 1.02995 -0.0150995 0
l 73 74
v 0.116752 -0.0035175 0.249248
v -0.883198 0.006482 0.249248
l 75 76
v 0.045 -0.00525 0
v 1.0448 0.014746 0
l 77 78
v 0.126802 -0.0033165 0.249248
v -0.872998 -0.0233125 0.249248
l 79 80
v 0.06 -0.00495 0
v 1.05939 0.0300286 0
l 81 82
v 0.136852 -0.00296475 0.249248
v -0.862536 -0.0379433 0.249248
l 83 84
v 0.075 -0.004425 0
v 1.07399 0.0405295 0
l 85 86
v 0.146902 -0.0025125 0.249248
v -0.852087 -0.047467 0.249248
l 87 88
v 0.09 -0.00375 0
v 1.08849 0.051167 0
l 89 90
v 0.156952 -0.00195975 0.249248
v -0.841539 -0.0568768 0.249248
l 91 92
v 0.105 -0.002925 0
v 1.1032 0.0569673 0
l 93 94
v 0.167002 -0.00135675 0.249248
v -0.831203 -0.061249 0.249248
l 95 96
v 0.12 -0.002025 0
v 1.11789 0.0628381 0
l 97 98
v 0.177052 -0.0007035 0.249248
v -0.820842 -0.0655666 0.249248
l 99 100
v 0.135 -0.00105 0
v 1.13256 0.0687792 0
l 101 102
v 0.182077 -0.00035175 0.249248
v -0.815482 -0.0701809 0.249248
l 103 104
v 0.15 -7.5e-05 0
v 0.297234 2.32167e-05 0.989102
l 105 106
v 0.1425 -0.000525 0
v 1.1407 0.0593672 0
l 107 108
v 0.187102 -5.025e-05 0.249248
v -0.811103 -0.0599425 0.249248
l 109 110
v 0.15 -7.5e-05 0
v 0.15 0.999925 0
l 111 112
v 0.187102 5.025e-05 0.249248
v 0.187102 -0.99995 0.249248
l 113 114
