v 0.15 0 0
v -0.847559 0.0698291 0
l 1 2
v 0.166732 0 0.259075
v 0.102284 0 -0.738846
l 3 4
v 0.160111 0.000463448 0.259075
v 1.15767 -0.0693657 0.259075
l 5 6
v 0.135 -0.00105 0
v 1.13256 0.0687791 0
l 7 8
v 0.166732 0 0.259075
v -0.830827 -0.0698291 0.259075
l 9 10
v 0.12 -0.002025 0
v 1.11789 0.0628381 0
l 11 12
v 0.160111 -0.000463448 0.259075
v -0.837783 -0.0653266 0.259075
l 13 14
v 0.105 -0.002925 0
v 1.1032 0.0569673 0
l 15 16
v 0.15349 -0.000893793 0.259075
v -0.844715 -0.0607861 0.259075
l 17 18
v 0.09 -0.00375 0
v 1.08849 0.051167 0
l 19 20
v 0.146869 -0.00129103 0.259075
v -0.851621 -0.056208 0.259075
l 21 22
v 0.075 -0.004425 0
v 1.07399 0.0405295 0
l 23 24
v 0.140249 -0.00165517 0.259075
v -0.85874 -0.0466097 0.259075
l 25 26
v 0.06 -0.00495 0
v 1.05939 0.0300286 0
l 27 28
v 0.133628 -0.0019531 0.259075
v -0.86576 -0.0369317 0.259075
l 29 30
v 0.045 -0.00525 0
v 1.0448 0.014746 0
l 31 32
v 0.127007 -0.00218483 0.259075
v -0.872793 -0.0221809 0.259075
l 33 34
v 0.03 -0.0051 0
v 1.02995 -0.0150995 0
l 35 36
v 0.120387 -0.00231724 0.259075
v -0.879563 0.00768228 0.259075
l 37 38
v 0.015 -0.00405 0
v 1.01256 -0.0738791 0
l 39 40
v 0.113766 -0.00225103 0.259075
v -0.883793 0.0675781 0.259075
l 41 42
v 0.0075 -0.003 0
v 0.997842 -0.141648 0
l 43 44
v 0.107145 -0.00178759 0.259075
v -0.883196 0.13686 0.259075
l 45 46
v 0.00375 -0.0021 0
v 0.976137 -0.235473 0
l 47 48
v 0.103835 -0.00132414 0.259075
v -0.868552 0.232049 0.259075
l 49 50
v 0 0 0
v 0.872506 -0.488603 0
l 51 52
v 0.100525 0 0.259075
v -0.261212 0 -0.673205
l 53 54
v 0.10218 -0.000926897 0.259075
v -0.770327 0.487676 0.259075
l 55 56
v 0.00375 0.0021 0
v -0.868756 -0.486503 0
l 57 58
v 0.100525 0 0.259075
v 0.973031 0.488603 0.259075
l 59 60
v 0.0075 0.003 0
v -0.964887 -0.230373 0
l 61 62
v 0.10218 0.000926897 0.259075
v 1.07457 0.2343 0.259075
l 63 64
v 0.015 0.00405 0
v -0.975342 -0.134598 0
l 65 66
v 0.103835 0.00132414 0.259075
v 1.09418 0.139972 0.259075
l 67 68
v 0.03 0.0051 0
v -0.967559 -0.0647291 0
l 69 70
v 0.107145 0.00178759 0.259075
v 1.1047 0.0716167 0.259075
l 71 72
v 0.045 0.00525 0
v -0.95495 -0.00474948 0
l 73 74
v 0.113766 0.00225103 0.259075
v 1.11372 0.0122506 0.259075
l 75 76
v 0.06 0.00495 0
v -0.9398 0.024946 0
l 77 78
v 0.120387 0.00231724 0.259075
v 1.12019 -0.0176788 0.259075
l 79 80
v 0.075 0.004425 0
v -0.924388 0.0394036 0
l 81 82
v 0.127007 0.00218483 0.259075
v 1.1264 -0.0327937 0.259075
l 83 84
v 0.09 0.00375 0
v -0.908989 0.0487045 0
l 85 86
v 0.133628 0.0019531 0.259075
v 1.13262 -0.0430014 0.259075
l 87 88
v 0.105 0.002925 0
v -0.893491 0.057842 0
l 89 90
v 0.140249 0.00165517 0.259075
v 1.13874 -0.0532618 0.259075
l 91 92
v 0.12 0.002025 0
v -0.878205 0.0619173 0
l 93 94
v 0.146869 0.00129103 0.259075
v 1.14507 -0.0586013 0.259075
l 95 96
v 0.160111 0.000463448 0.259075
v -0.837783 0.0653266 0.259075
l 97 98
v 0.135 0.00105 0
v -0.862894 0.0659131 0
l 99 100
