v 0.15 7.5e-05 0
v 0.1425 0.000525 0
l 1 2
v 0.173405 3.72e-05 0.216546
v 0.15 7.5e-05 0
l 3 4
v 0.169685 0.0002604 0.216546
v 0.173405 3.72e-05 0.216546
l 5 6
v 0.1425 0.000525 0
v 0.135 0.00105 0
l 7 8
v 0.165965 0.0005208 0.216546
v 0.169685 0.0002604 0.216546
l 9 10
v 0.135 0.00105 0
v 0.12 0.002025 0
l 11 12
v 0.158525 0.0010044 0.216546
v 0.165965 0.0005208 0.216546
l 13 14
v 0.12 0.002025 0
v 0.105 0.002925 0
l 15 16
v 0.151085 0.0014508 0.216546
v 0.158525 0.0010044 0.216546
l 17 18
v 0.105 0.002925 0
v 0.09 0.00375 0
l 19 20
v 0.143645 0.00186 0.216546
v 0.151085 0.0014508 0.216546
l 21 22
v 0.09 0.00375 0
v 0.075 0.004425 0
l 23 24
v 0.136205 0.0021948 0.216546
v 0.143645 0.00186 0.216546
l 25 26
v 0.075 0.004425 0
v 0.06 0.00495 0
l 27 28
v 0.128765 0.0024552 0.216546
v 0.136205 0.0021948 0.216546
l 29 30
v 0.06 0.00495 0
v 0.045 0.00525 0
l 31 32
v 0.121325 0.002604 0.216546
v 0.128765 0.0024552 0.216546
l 33 34
v 0.045 0.00525 0
v 0.03 0.0051 0
l 35 36
v 0.113885 0.0025296 0.216546
v 0.121325 0.002604 0.216546
l 37 38
v 0.03 0.0051 0
v 0.015 0.00405 0
l 39 40
v 0.106445 0.0020088 0.216546
v 0.113885 0.0025296 0.216546
l 41 42
v 0.015 0.00405 0
v 0.0075 0.003 0
l 43 44
v 0.102725 0.001488 0.216546
v 0.106445 0.0020088 0.216546
l 45 46
v 0.0075 0.003 0
v 0.00375 0.0021 0
l 47 48
v 0.100865 0.0010416 0.216546
v 0.102725 0.001488 0.216546
l 49 50
v 0 0 0
v 0.0990054 0 0.216546
l 51 52
v 0.00375 0.0021 0
v 0 0 0
l 53 54
v 0.0990054 0 0.216546
v 0.100865 0.0010416 0.216546
l 55 56
v 0 0 0
v 0.00375 -0.0021 0
l 57 58
v 0.100865 -0.0010416 0.216546
v 0.0990054 0 0.216546
l 59 60
v 0.00375 -0.0021 0
v 0.0075 -0.003 0
l 61 62
v 0.102725 -0.001488 0.216546
v 0.100865 -0.0010416 0.216546
l 63 64
v 0.0075 -0.003 0
v 0.015 -0.00405 0
l 65 66
v 0.106445 -0.0020088 0.216546
v 0.102725 -0.001488 0.216546
l 67 68
v 0.015 -0.00405 0
v 0.03 -0.0051 0
l 69 70
v 0.113885 -0.0025296 0.216546
v 0.106445 -0.0020088 0.216546
l 71 72
v 0.03 -0.0051 0
v 0.045 -0.00525 0
l 73 74
v 0.121325 -0.002604 0.216546
v 0.113885 -0.0025296 0.216546
l 75 76
v 0.045 -0.00525 0
v 0.06 -0.00495 0
l 77 78
v 0.128765 -0.0024552 0.216546
v 0.121325 -0.002604 0.216546
l 79 80
v 0.06 -0.00495 0
v 0.075 -0.004425 0
l 81 82
v 0.136205 -0.0021948 0.216546
v 0.128765 -0.0024552 0.216546
l 83 84
v 0.075 -0.004425 0
v 0.09 -0.00375 0
l 85 86
v 0.143645 -0.00186 0.216546
v 0.136205 -0.0021948 0.216546
l 87 88
v 0.09 -0.00375 0
v 0.105 -0.002925 0
l 89 90
v 0.151085 -0.0014508 0.216546
v 0.143645 -0.00186 0.216546
l 91 92
v 0.105 -0.002925 0
v 0.12 -0.002025 0
l 93 94
v 0.158525 -0.0010044 0.216546
v 0.151085 -0.0014508 0.216546
l 95 96
v 0.12 -0.002025 0
v 0.135 -0.00105 0
l 97 98
v 0.165965 -0.0005208 0.216546
v 0.158525 -0.0010044 0.216546
l 99 100
v 0.135 -0.00105 0
v 0.1425 -0.000525 0
l 101 102
v 0.169685 -0.0002604 0.216546
v 0.165965 -0.0005208 0.216546
l 103 104
v 0.15 -7.5e-05 0
v 0.173405 -3.72e-05 0.216546
l 105 106
v 0.1425 -0.000525 0
v 0.15 -7.5e-05 0
l 107 108
v 0.173405 -3.72e-05 0.216546
v 0.169685 -0.0002604 0.216546
l 109 110
v 0.15 -7.5e-05 0
v 0.15 7.5e-05 0
l 111 112
v 0.173405 3.72e-05 0.216546
v 0.173405 -3.72e-05 0.216546
l 113 114
