v 0.145009 0 0.243023
v 0.165541 0 -0.756766
l 1 2
v 0.15 0 0
v -0.847559 0.0698291 0
l 3 4
v 0.13632 0.000608276 0.243023
v 1.13388 -0.069221 0.243023
l 5 6
v 0.135 -0.00105 0
v 1.13256 0.0687791 0
l 7 8
v 0.145009 0 0.243023
v -0.85255 -0.0698292 0.243023
l 9 10
v 0.12 -0.002025 0
v 1.11789 0.0628381 0
l 11 12
v 0.13632 -0.000608276 0.243023
v -0.861575 -0.0654714 0.243023
l 13 14
v 0.105 -0.002925 0
v 1.1032 0.0569673 0
l 15 16
v 0.12763 -0.0011731 0.243023
v -0.870575 -0.0610654 0.243023
l 17 18
v 0.09 -0.00375 0
v 1.08849 0.051167 0
l 19 20
v 0.11894 -0.00169448 0.243023
v -0.879551 -0.0566115 0.243023
l 21 22
v 0.075 -0.004425 0
v 1.07399 0.0405295 0
l 23 24
v 0.110251 -0.00217241 0.243023
v -0.888738 -0.0471269 0.243023
l 25 26
v 0.06 -0.00495 0
v 1.05939 0.0300286 0
l 27 28
v 0.101561 -0.00256345 0.243023
v -0.897827 -0.037542 0.243023
l 29 30
v 0.045 -0.00525 0
v 1.0448 0.014746 0
l 31 32
v 0.0928713 -0.00286759 0.243023
v -0.906929 -0.0228636 0.243023
l 33 34
v 0.03 -0.0051 0
v 1.02995 -0.0150995 0
l 35 36
v 0.0841817 -0.00304138 0.243023
v -0.915768 0.00695813 0.243023
l 37 38
v 0.015 -0.00405 0
v 1.01256 -0.0738791 0
l 39 40
v 0.075492 -0.00295448 0.243023
v -0.922067 0.0668746 0.243023
l 41 42
v 0.0075 -0.003 0
v 0.997842 -0.141648 0
l 43 44
v 0.0668024 -0.00234621 0.243023
v -0.923539 0.136302 0.243023
l 45 46
v 0.00375 -0.0021 0
v 0.976137 -0.235473 0
l 47 48
v 0.0624575 -0.00173793 0.243023
v -0.90993 0.231635 0.243023
l 49 50
v 0 0 0
v 0.872506 -0.488603 0
l 51 52
v 0.0581127 0 0.243023
v -0.174455 0 -0.729557
l 53 54
v 0.0602851 -0.00121655 0.243023
v -0.812221 0.487387 0.243023
l 55 56
v 0.00375 0.0021 0
v -0.868756 -0.486503 0
l 57 58
v 0.0581127 0 0.243023
v 0.930619 0.488603 0.243023
l 59 60
v 0.0075 0.003 0
v -0.964887 -0.230373 0
l 61 62
v 0.0602851 0.00121655 0.243023
v 1.03267 0.234589 0.243023
l 63 64
v 0.015 0.00405 0
v -0.975342 -0.134598 0
l 65 66
v 0.0624575 0.00173793 0.243023
v 1.0528 0.140386 0.243023
l 67 68
v 0.03 0.0051 0
v -0.967559 -0.0647291 0
l 69 70
v 0.0668024 0.00234621 0.243023
v 1.06436 0.0721753 0.243023
l 71 72
v 0.045 0.00525 0
v -0.95495 -0.00474948 0
l 73 74
v 0.075492 0.00295448 0.243023
v 1.07544 0.012954 0.243023
l 75 76
v 0.06 0.00495 0
v -0.9398 0.024946 0
l 77 78
v 0.0841817 0.00304138 0.243023
v 1.08398 -0.0169546 0.243023
l 79 80
v 0.075 0.004425 0
v -0.924388 0.0394036 0
l 81 82
v 0.0928713 0.00286759 0.243023
v 1.09226 -0.032111 0.243023
l 83 84
v 0.09 0.00375 0
v -0.908989 0.0487045 0
l 85 86
v 0.101561 0.00256345 0.243023
v 1.10055 -0.0423911 0.243023
l 87 88
v 0.105 0.002925 0
v -0.893491 0.057842 0
l 89 90
v 0.110251 0.00217241 0.243023
v 1.10874 -0.0527446 0.243023
l 91 92
v 0.12 0.002025 0
v -0.878205 0.0619173 0
l 93 94
v 0.11894 0.00169448 0.243023
v 1.11715 -0.0581978 0.243023
l 95 96
v 0.13632 0.000608276 0.243023
v -0.861575 0.0654714 0.243023
l 97 98
v 0.135 0.00105 0
v -0.862894 0.0659131 0
l 99 100
