v 0.15 7.5e-05 0
v -0.848205 0.0599672 0
l 1 2
v 0.231855 4.635e-05 0.2876
v -0.0418878 0.000142163 -0.674203
l 3 4
v 0.22722 0.00032445 0.2876
v 1.22542 -0.059568 0.2876
l 5 6
v 0.1425 0.000525 0
v -0.855059 0.0703542 0
l 7 8
v 0.222585 0.0006489 0.2876
v 1.22014 -0.0691801 0.2876
l 9 10
v 0.135 0.00105 0
v -0.862894 0.0659131 0
l 11 12
v 0.213315 0.00125145 0.2876
v 1.21121 -0.0636117 0.2876
l 13 14
v 0.12 0.002025 0
v -0.878205 0.0619173 0
l 15 16
v 0.204045 0.00180765 0.2876
v 1.20225 -0.0580846 0.2876
l 17 18
v 0.105 0.002925 0
v -0.893491 0.057842 0
l 19 20
v 0.194775 0.0023175 0.2876
v 1.19327 -0.0525995 0.2876
l 21 22
v 0.09 0.00375 0
v -0.908989 0.0487045 0
l 23 24
v 0.185505 0.00273465 0.2876
v 1.18449 -0.0422198 0.2876
l 25 26
v 0.075 0.004425 0
v -0.924388 0.0394036 0
l 27 28
v 0.176235 0.0030591 0.2876
v 1.17562 -0.0319195 0.2876
l 29 30
v 0.06 0.00495 0
v -0.9398 0.024946 0
l 31 32
v 0.166965 0.0032445 0.2876
v 1.16676 -0.0167515 0.2876
l 33 34
v 0.045 0.00525 0
v -0.95495 -0.00474948 0
l 35 36
v 0.157695 0.0031518 0.2876
v 1.15764 0.0131513 0.2876
l 37 38
v 0.03 0.0051 0
v -0.967559 -0.0647291 0
l 39 40
v 0.148425 0.0025029 0.2876
v 1.14598 0.072332 0.2876
l 41 42
v 0.015 0.00405 0
v -0.975342 -0.134598 0
l 43 44
v 0.14379 0.001854 0.2876
v 1.13413 0.140502 0.2876
l 45 46
v 0.0075 0.003 0
v -0.964887 -0.230373 0
l 47 48
v 0.141472 0.0012978 0.2876
v 1.11386 0.23467 0.2876
l 49 50
v 0 0 0
v 0.435545 0 0.900167
l 51 52
v 0.00375 0.0021 0
v -0.868756 -0.486503 0
l 53 54
v 0.139155 0 0.2876
v 1.01166 0.488603 0.2876
l 55 56
v 0 0 0
v 0.872506 -0.488603 0
l 57 58
v 0.141472 -0.0012978 0.2876
v -0.731034 0.487305 0.2876
l 59 60
v 0.00375 -0.0021 0
v 0.976137 -0.235473 0
l 61 62
v 0.14379 -0.001854 0.2876
v -0.828597 0.231519 0.2876
l 63 64
v 0.0075 -0.003 0
v 0.997842 -0.141648 0
l 65 66
v 0.148425 -0.0025029 0.2876
v -0.841917 0.136145 0.2876
l 67 68
v 0.015 -0.00405 0
v 1.01256 -0.0738791 0
l 69 70
v 0.157695 -0.0031518 0.2876
v -0.839864 0.0666773 0.2876
l 71 72
v 0.03 -0.0051 0
v 1.02995 -0.0150995 0
l 73 74
v 0.166965 -0.0032445 0.2876
v -0.832985 0.00675499 0.2876
l 75 76
v 0.045 -0.00525 0
v 1.0448 0.014746 0
l 77 78
v 0.176235 -0.0030591 0.2876
v -0.823565 -0.0230551 0.2876
l 79 80
v 0.06 -0.00495 0
v 1.05939 0.0300286 0
l 81 82
v 0.185505 -0.00273465 0.2876
v -0.813883 -0.0377132 0.2876
l 83 84
v 0.075 -0.004425 0
v 1.07399 0.0405295 0
l 85 86
v 0.194775 -0.0023175 0.2876
v -0.804214 -0.0472719 0.2876
l 87 88
v 0.09 -0.00375 0
v 1.08849 0.051167 0
l 89 90
v 0.204045 -0.00180765 0.2876
v -0.794446 -0.0567247 0.2876
l 91 92
v 0.105 -0.002925 0
v 1.1032 0.0569673 0
l 93 94
v 0.213315 -0.00125145 0.2876
v -0.78489 -0.0611437 0.2876
l 95 96
v 0.12 -0.002025 0
v 1.11789 0.0628381 0
l 97 98
v 0.222585 -0.0006489 0.2876
v -0.775309 -0.065512 0.2876
l 99 100
v 0.135 -0.00105 0
v 1.13256 0.0687792 0
l 101 102
v 0.22722 -0.00032445 0.2876
v -0.770339 -0.0701535 0.2876
l 103 104
v 0.15 -7.5e-05 0
v 0.423743 2.08126e-05 0.961803
l 105 106
v 0.1425 -0.000525 0
v 1.1407 0.0593672 0
l 107 108
v 0.231855 -4.635e-05 0.2876
v -0.76635 -0.0599388 0.2876
l 109 110
v 0.15 -7.5e-05 0
v 0.15 0.999925 0
l 111 112
v 0.231855 4.635e-05 0.2876
v 0.231855 -0.999954 0.2876
l 113 114
