v 0.15 0 0
v -0.847559 0.0698291 0
l 1 2
v 0.221355 0 0.434795
v 0.0594099 0 -0.552005
l 3 4
v 0.21101 0.000724138 0.434795
v 1.20857 -0.0691051 0.434795
l 5 6
v 0.135 -0.00105 0
v 1.13256 0.0687791 0
l 7 8
v 0.221355 0 0.434795
v -0.776204 -0.0698292 0.434795
l 9 10
v 0.12 -0.002025 0
v 1.11789 0.0628381 0
l 11 12
v 0.21101 -0.000724138 0.434795
v -0.786884 -0.0655872 0.434795
l 13 14
v 0.105 -0.002925 0
v 1.1032 0.0569673 0
l 15 16
v 0.200665 -0.00139655 0.434795
v -0.79754 -0.0612888 0.434795
l 17 18
v 0.09 -0.00375 0
v 1.08849 0.051167 0
l 19 20
v 0.19032 -0.00201724 0.434795
v -0.808171 -0.0569343 0.434795
l 21 22
v 0.075 -0.004425 0
v 1.07399 0.0405295 0
l 23 24
v 0.179975 -0.00258621 0.434795
v -0.819014 -0.0475407 0.434795
l 25 26
v 0.06 -0.00495 0
v 1.05939 0.0300286 0
l 27 28
v 0.169631 -0.00305172 0.434795
v -0.829758 -0.0380304 0.434795
l 29 30
v 0.045 -0.00525 0
v 1.0448 0.014746 0
l 31 32
v 0.159286 -0.00341379 0.434795
v -0.840514 -0.0234098 0.434795
l 33 34
v 0.03 -0.0051 0
v 1.02995 -0.0150995 0
l 35 36
v 0.148941 -0.00362069 0.434795
v -0.851009 0.00637881 0.434795
l 37 38
v 0.015 -0.00405 0
v 1.01256 -0.0738791 0
l 39 40
v 0.138596 -0.00351724 0.434795
v -0.858963 0.066312 0.434795
l 41 42
v 0.0075 -0.003 0
v 0.997842 -0.141648 0
l 43 44
v 0.128251 -0.0027931 0.434795
v -0.862091 0.135855 0.434795
l 45 46
v 0.00375 -0.0021 0
v 0.976137 -0.235473 0
l 47 48
v 0.123079 -0.00206897 0.434795
v -0.849309 0.231304 0.434795
l 49 50
v 0 0 0
v 0.872506 -0.488603 0
l 51 52
v 0.117906 0 0.434795
v -0.143818 0 -0.530348
l 53 54
v 0.120493 -0.00144828 0.434795
v -0.752014 0.487155 0.434795
l 55 56
v 0.00375 0.0021 0
v -0.868756 -0.486503 0
l 57 58
v 0.117906 0 0.434795
v 0.990413 0.488603 0.434795
l 59 60
v 0.0075 0.003 0
v -0.964887 -0.230373 0
l 61 62
v 0.120493 0.00144828 0.434795
v 1.09288 0.234821 0.434795
l 63 64
v 0.015 0.00405 0
v -0.975342 -0.134598 0
l 65 66
v 0.123079 0.00206897 0.434795
v 1.11342 0.140717 0.434795
l 67 68
v 0.03 0.0051 0
v -0.967559 -0.0647291 0
l 69 70
v 0.128251 0.0027931 0.434795
v 1.12581 0.0726223 0.434795
l 71 72
v 0.045 0.00525 0
v -0.95495 -0.00474948 0
l 73 74
v 0.138596 0.00351724 0.434795
v 1.13855 0.0135167 0.434795
l 75 76
v 0.06 0.00495 0
v -0.9398 0.024946 0
l 77 78
v 0.148941 0.00362069 0.434795
v 1.14874 -0.0163753 0.434795
l 79 80
v 0.075 0.004425 0
v -0.924388 0.0394036 0
l 81 82
v 0.159286 0.00341379 0.434795
v 1.15867 -0.0315648 0.434795
l 83 84
v 0.09 0.00375 0
v -0.908989 0.0487045 0
l 85 86
v 0.169631 0.00305172 0.434795
v 1.16862 -0.0419028 0.434795
l 87 88
v 0.105 0.002925 0
v -0.893491 0.057842 0
l 89 90
v 0.179975 0.00258621 0.434795
v 1.17847 -0.0523308 0.434795
l 91 92
v 0.12 0.002025 0
v -0.878205 0.0619173 0
l 93 94
v 0.19032 0.00201724 0.434795
v 1.18853 -0.057875 0.434795
l 95 96
v 0.21101 0.000724138 0.434795
v -0.786884 0.0655872 0.434795
l 97 98
v 0.135 0.00105 0
v -0.862894 0.0659131 0
l 99 100
