# Wavefront OBJ file written 2026-08-27T02:44:01
o tailfin_edgeMesh

# points : 48
# lines  : 50

# <points count="48">
v 0.15 0 0
v 0.221355 0 0.434795
v 0 0 0
v 0.117906 0 0.434795
v 0.135 0.00105 0
v 0.21101 0.000724138 0.434795
v 0.135 -0.00105 0
v 0.21101 -0.000724138 0.434795
v 0.12 -0.002025 0
v 0.200665 -0.00139655 0.434795
v 0.105 -0.002925 0
v 0.19032 -0.00201724 0.434795
v 0.09 -0.00375 0
v 0.179975 -0.00258621 0.434795
v 0.075 -0.004425 0
v 0.169631 -0.00305172 0.434795
v 0.06 -0.00495 0
v 0.159286 -0.00341379 0.434795
v 0.045 -0.00525 0
v 0.148941 -0.00362069 0.434795
v 0.03 -0.0051 0
v 0.138596 -0.00351724 0.434795
v 0.015 -0.00405 0
v 0.128251 -0.0027931 0.434795
v 0.0075 -0.003 0
v 0.123079 -0.00206897 0.434795
v 0.00375 -0.0021 0
v 0.120493 -0.00144828 0.434795
v 0.00375 0.0021 0
v 0.120493 0.00144828 0.434795
v 0.0075 0.003 0
v 0.123079 0.00206897 0.434795
v 0.015 0.00405 0
v 0.128251 0.0027931 0.434795
v 0.03 0.0051 0
v 0.138596 0.00351724 0.434795
v 0.045 0.00525 0
v 0.148941 0.00362069 0.434795
v 0.06 0.00495 0
v 0.159286 0.00341379 0.434795
v 0.075 0.004425 0
v 0.169631 0.00305172 0.434795
v 0.09 0.00375 0
v 0.179975 0.00258621 0.434795
v 0.105 0.002925 0
v 0.19032 0.00201724 0.434795
v 0.12 0.002025 0
v 0.200665 0.00139655 0.434795
# </points>

# <edges count="50">
l 1 5
l 2 1
l 6 2
l 7 1
l 2 8
l 9 7
l 8 10
l 11 9
l 10 12
l 13 11
l 12 14
l 15 13
l 14 16
l 17 15
l 16 18
l 19 17
l 18 20
l 21 19
l 20 22
l 23 21
l 22 24
l 25 23
l 24 26
l 27 25
l 26 28
l 3 27
l 4 3
l 28 4
l 29 3
l 4 30
l 31 29
l 30 32
l 33 31
l 32 34
l 35 33
l 34 36
l 37 35
l 36 38
l 39 37
l 38 40
l 41 39
l 40 42
l 43 41
l 42 44
l 45 43
l 44 46
l 47 45
l 46 48
l 6 48
l 5 47
# </edges>
