v 0.15 0 0
v -0.847559 0.0698291 0
l 1 2
v 0.187339 0 0.230556
v 0.0274715 0 -0.756583
l 3 4
v 0.176373 0.000767586 0.230556
v 1.17393 -0.0690615 0.230556
l 5 6
v 0.135 -0.00105 0
v 1.13256 0.0687791 0
l 7 8
v 0.187339 0 0.230556
v -0.81022 -0.0698291 0.230556
l 9 10
v 0.12 -0.002025 0
v 1.11789 0.0628381 0
l 11 12
v 0.176373 -0.000767586 0.230556
v -0.821521 -0.0656307 0.230556
l 13 14
v 0.105 -0.002925 0
v 1.1032 0.0569673 0
l 15 16
v 0.165407 -0.00148034 0.230556
v -0.832797 -0.0613726 0.230556
l 17 18
v 0.09 -0.00375 0
v 1.08849 0.051167 0
l 19 20
v 0.154442 -0.00213828 0.230556
v -0.844049 -0.0570553 0.230556
l 21 22
v 0.075 -0.004425 0
v 1.07399 0.0405295 0
l 23 24
v 0.143476 -0.00274138 0.230556
v -0.855513 -0.0476959 0.230556
l 25 26
v 0.06 -0.00495 0
v 1.05939 0.0300286 0
l 27 28
v 0.132511 -0.00323483 0.230556
v -0.866877 -0.0382134 0.230556
l 29 30
v 0.045 -0.00525 0
v 1.0448 0.014746 0
l 31 32
v 0.121545 -0.00361862 0.230556
v -0.878255 -0.0236146 0.230556
l 33 34
v 0.03 -0.0051 0
v 1.02995 -0.0150995 0
l 35 36
v 0.11058 -0.00383793 0.230556
v -0.88937 0.00616156 0.230556
l 37 38
v 0.015 -0.00405 0
v 1.01256 -0.0738791 0
l 39 40
v 0.0996144 -0.00372828 0.230556
v -0.897945 0.0661009 0.230556
l 41 42
v 0.0075 -0.003 0
v 0.997842 -0.141648 0
l 43 44
v 0.0886488 -0.00296069 0.230556
v -0.901693 0.135687 0.230556
l 45 46
v 0.00375 -0.0021 0
v 0.976137 -0.235473 0
l 47 48
v 0.0831661 -0.0021931 0.230556
v -0.889221 0.23118 0.230556
l 49 50
v 0 0 0
v 0.872506 -0.488603 0
l 51 52
v 0.0776833 0 0.230556
v -0.241618 0 -0.717097
l 53 54
v 0.0804247 -0.00153517 0.230556
v -0.792081 0.487068 0.230556
l 55 56
v 0.00375 0.0021 0
v -0.868756 -0.486503 0
l 57 58
v 0.0776833 0 0.230556
v 0.95019 0.488603 0.230556
l 59 60
v 0.0075 0.003 0
v -0.964887 -0.230373 0
l 61 62
v 0.0804247 0.00153517 0.230556
v 1.05281 0.234909 0.230556
l 63 64
v 0.015 0.00405 0
v -0.975342 -0.134598 0
l 65 66
v 0.0831661 0.0021931 0.230556
v 1.07351 0.140841 0.230556
l 67 68
v 0.03 0.0051 0
v -0.967559 -0.0647291 0
l 69 70
v 0.0886488 0.00296069 0.230556
v 1.08621 0.0727898 0.230556
l 71 72
v 0.045 0.00525 0
v -0.95495 -0.00474948 0
l 73 74
v 0.0996144 0.00372828 0.230556
v 1.09956 0.0137278 0.230556
l 75 76
v 0.06 0.00495 0
v -0.9398 0.024946 0
l 77 78
v 0.11058 0.00383793 0.230556
v 1.11038 -0.0161581 0.230556
l 79 80
v 0.075 0.004425 0
v -0.924388 0.0394036 0
l 81 82
v 0.121545 0.00361862 0.230556
v 1.12093 -0.0313599 0.230556
l 83 84
v 0.09 0.00375 0
v -0.908989 0.0487045 0
l 85 86
v 0.132511 0.00323483 0.230556
v 1.1315 -0.0417197 0.230556
l 87 88
v 0.105 0.002925 0
v -0.893491 0.057842 0
l 89 90
v 0.143476 0.00274138 0.230556
v 1.14197 -0.0521756 0.230556
l 91 92
v 0.12 0.002025 0
v -0.878205 0.0619173 0
l 93 94
v 0.154442 0.00213828 0.230556
v 1.15265 -0.057754 0.230556
l 95 96
v 0.176373 0.000767586 0.230556
v -0.821521 0.0656307 0.230556
l 97 98
v 0.135 0.00105 0
v -0.862894 0.0659131 0
l 99 100
