v 0.15 0 0
v 0.135 0.00105 0
l 1 2
v 0.223189 0 0.332613
v 0.15 0 0
l 3 4
v 0.212637 0.000738621 0.332613
v 0.223189 0 0.332613
l 5 6
v 0.135 -0.00105 0
v 0.15 0 0
l 7 8
v 0.223189 0 0.332613
v 0.212637 -0.000738621 0.332613
l 9 10
v 0.12 -0.002025 0
v 0.135 -0.00105 0
l 11 12
v 0.212637 -0.000738621 0.332613
v 0.202086 -0.00142448 0.332613
l 13 14
v 0.105 -0.002925 0
v 0.12 -0.002025 0
l 15 16
v 0.202086 -0.00142448 0.332613
v 0.191534 -0.00205759 0.332613
l 17 18
v 0.09 -0.00375 0
v 0.105 -0.002925 0
l 19 20
v 0.191534 -0.00205759 0.332613
v 0.180982 -0.00263793 0.332613
l 21 22
v 0.075 -0.004425 0
v 0.09 -0.00375 0
l 23 24
v 0.180982 -0.00263793 0.332613
v 0.17043 -0.00311276 0.332613
l 25 26
v 0.06 -0.00495 0
v 0.075 -0.004425 0
l 27 28
v 0.17043 -0.00311276 0.332613
v 0.159879 -0.00348207 0.332613
l 29 30
v 0.045 -0.00525 0
v 0.06 -0.00495 0
l 31 32
v 0.159879 -0.00348207 0.332613
v 0.149327 -0.0036931 0.332613
l 33 34
v 0.03 -0.0051 0
v 0.045 -0.00525 0
l 35 36
v 0.149327 -0.0036931 0.332613
v 0.138775 -0.00358759 0.332613
l 37 38
v 0.015 -0.00405 0
v 0.03 -0.0051 0
l 39 40
v 0.138775 -0.00358759 0.332613
v 0.128224 -0.00284897 0.332613
l 41 42
v 0.0075 -0.003 0
v 0.015 -0.00405 0
l 43 44
v 0.128224 -0.00284897 0.332613
v 0.122948 -0.00211034 0.332613
l 45 46
v 0.00375 -0.0021 0
v 0.0075 -0.003 0
l 47 48
v 0.122948 -0.00211034 0.332613
v 0.12031 -0.00147724 0.332613
l 49 50
v 0 0 0
v 0.00375 -0.0021 0
l 51 52
v 0.117672 0 0.332613
v 0 0 0
l 53 54
v 0.12031 -0.00147724 0.332613
v 0.117672 0 0.332613
l 55 56
v 0.00375 0.0021 0
v 0 0 0
l 57 58
v 0.117672 0 0.332613
v 0.12031 0.00147724 0.332613
l 59 60
v 0.0075 0.003 0
v 0.00375 0.0021 0
l 61 62
v 0.12031 0.00147724 0.332613
v 0.122948 0.00211034 0.332613
l 63 64
v 0.015 0.00405 0
v 0.0075 0.003 0
l 65 66
v 0.122948 0.00211034 0.332613
v 0.128224 0.00284897 0.332613
l 67 68
v 0.03 0.0051 0
v 0.015 0.00405 0
l 69 70
v 0.128224 0.00284897 0.332613
v 0.138775 0.00358759 0.332613
l 71 72
v 0.045 0.00525 0
v 0.03 0.0051 0
l 73 74
v 0.138775 0.00358759 0.332613
v 0.149327 0.0036931 0.332613
l 75 76
v 0.06 0.00495 0
v 0.045 0.00525 0
l 77 78
v 0.149327 0.0036931 0.332613
v 0.159879 0.00348207 0.332613
l 79 80
v 0.075 0.004425 0
v 0.06 0.00495 0
l 81 82
v 0.159879 0.00348207 0.332613
v 0.17043 0.00311276 0.332613
l 83 84
v 0.09 0.00375 0
v 0.075 0.004425 0
l 85 86
v 0.17043 0.00311276 0.332613
v 0.180982 0.00263793 0.332613
l 87 88
v 0.105 0.002925 0
v 0.09 0.00375 0
l 89 90
v 0.180982 0.00263793 0.332613
v 0.191534 0.00205759 0.332613
l 91 92
v 0.12 0.002025 0
v 0.105 0.002925 0
l 93 94
v 0.191534 0.00205759 0.332613
v 0.202086 0.00142448 0.332613
l 95 96
v 0.212637 0.000738621 0.332613
v 0.202086 0.00142448 0.332613
l 97 98
v 0.135 0.00105 0
v 0.12 0.002025 0
l 99 100
