v 0.15 0 0
v -0.847559 0.0698291 0
l 1 2
v 0.223189 0 0.332613
v 0.00828753 0 -0.644023
l 3 4
v 0.212637 0.000738621 0.332613
v 1.2102 -0.0690905 0.332613
l 5 6
v 0.135 -0.00105 0
v 1.13256 0.0687791 0
l 7 8
v 0.223189 0 0.332613
v -0.77437 -0.0698292 0.332613
l 9 10
v 0.12 -0.002025 0
v 1.11789 0.0628381 0
l 11 12
v 0.212637 -0.000738621 0.332613
v -0.785257 -0.0656017 0.332613
l 13 14
v 0.105 -0.002925 0
v 1.1032 0.0569673 0
l 15 16
v 0.202086 -0.00142448 0.332613
v -0.796119 -0.0613168 0.332613
l 17 18
v 0.09 -0.00375 0
v 1.08849 0.051167 0
l 19 20
v 0.191534 -0.00205759 0.332613
v -0.806957 -0.0569746 0.332613
l 21 22
v 0.075 -0.004425 0
v 1.07399 0.0405295 0
l 23 24
v 0.180982 -0.00263793 0.332613
v -0.818007 -0.0475924 0.332613
l 25 26
v 0.06 -0.00495 0
v 1.05939 0.0300286 0
l 27 28
v 0.17043 -0.00311276 0.332613
v -0.828958 -0.0380914 0.332613
l 29 30
v 0.045 -0.00525 0
v 1.0448 0.014746 0
l 31 32
v 0.159879 -0.00348207 0.332613
v -0.839921 -0.0234781 0.332613
l 33 34
v 0.03 -0.0051 0
v 1.02995 -0.0150995 0
l 35 36
v 0.149327 -0.0036931 0.332613
v -0.850623 0.00630642 0.332613
l 37 38
v 0.015 -0.00405 0
v 1.01256 -0.0738791 0
l 39 40
v 0.138775 -0.00358759 0.332613
v -0.858784 0.0662415 0.332613
l 41 42
v 0.0075 -0.003 0
v 0.997842 -0.141648 0
l 43 44
v 0.128224 -0.00284897 0.332613
v -0.862118 0.135799 0.332613
l 45 46
v 0.00375 -0.0021 0
v 0.976137 -0.235473 0
l 47 48
v 0.122948 -0.00211034 0.332613
v -0.84944 0.231263 0.332613
l 49 50
v 0 0 0
v 0.872506 -0.488603 0
l 51 52
v 0.117672 0 0.332613
v -0.215851 0 -0.610129
l 53 54
v 0.12031 -0.00147724 0.332613
v -0.752197 0.487125 0.332613
l 55 56
v 0.00375 0.0021 0
v -0.868756 -0.486503 0
l 57 58
v 0.117672 0 0.332613
v 0.990178 0.488602 0.332613
l 59 60
v 0.0075 0.003 0
v -0.964887 -0.230373 0
l 61 62
v 0.12031 0.00147724 0.332613
v 1.0927 0.23485 0.332613
l 63 64
v 0.015 0.00405 0
v -0.975342 -0.134598 0
l 65 66
v 0.122948 0.00211034 0.332613
v 1.11329 0.140758 0.332613
l 67 68
v 0.03 0.0051 0
v -0.967559 -0.0647291 0
l 69 70
v 0.128224 0.00284897 0.332613
v 1.12578 0.0726781 0.332613
l 71 72
v 0.045 0.00525 0
v -0.95495 -0.00474948 0
l 73 74
v 0.138775 0.00358759 0.332613
v 1.13873 0.0135871 0.332613
l 75 76
v 0.06 0.00495 0
v -0.9398 0.024946 0
l 77 78
v 0.149327 0.0036931 0.332613
v 1.14913 -0.0163029 0.332613
l 79 80
v 0.075 0.004425 0
v -0.924388 0.0394036 0
l 81 82
v 0.159879 0.00348207 0.332613
v 1.15927 -0.0314965 0.332613
l 83 84
v 0.09 0.00375 0
v -0.908989 0.0487045 0
l 85 86
v 0.17043 0.00311276 0.332613
v 1.16942 -0.0418417 0.332613
l 87 88
v 0.105 0.002925 0
v -0.893491 0.057842 0
l 89 90
v 0.180982 0.00263793 0.332613
v 1.17947 -0.0522791 0.332613
l 91 92
v 0.12 0.002025 0
v -0.878205 0.0619173 0
l 93 94
v 0.191534 0.00205759 0.332613
v 1.18974 -0.0578347 0.332613
l 95 96
v 0.212637 0.000738621 0.332613
v -0.785257 0.0656017 0.332613
l 97 98
v 0.135 0.00105 0
v -0.862894 0.0659131 0
l 99 100
