v 0.123924 0 0.27923
v 0.216904 0 -0.716438
l 1 2
v 0.15 0 0
v -0.847559 0.0698291 0
l 3 4
v 0.11689 0.000492414 0.27923
v 1.11445 -0.0693367 0.27923
l 5 6
v 0.135 -0.00105 0
v 1.13256 0.0687791 0
l 7 8
v 0.123924 0 0.27923
v -0.873635 -0.0698291 0.27923
l 9 10
v 0.12 -0.002025 0
v 1.11789 0.0628381 0
l 11 12
v 0.11689 -0.000492414 0.27923
v -0.881004 -0.0653556 0.27923
l 13 14
v 0.105 -0.002925 0
v 1.1032 0.0569673 0
l 15 16
v 0.109855 -0.000949655 0.27923
v -0.888349 -0.060842 0.27923
l 17 18
v 0.09 -0.00375 0
v 1.08849 0.051167 0
l 19 20
v 0.102821 -0.00137172 0.27923
v -0.89567 -0.0562887 0.27923
l 21 22
v 0.075 -0.004425 0
v 1.07399 0.0405295 0
l 23 24
v 0.0957864 -0.00175862 0.27923
v -0.903203 -0.0467131 0.27923
l 25 26
v 0.06 -0.00495 0
v 1.05939 0.0300286 0
l 27 28
v 0.088752 -0.00207517 0.27923
v -0.910636 -0.0370537 0.27923
l 29 30
v 0.045 -0.00525 0
v 1.0448 0.014746 0
l 31 32
v 0.0817175 -0.00232138 0.27923
v -0.918083 -0.0223174 0.27923
l 33 34
v 0.03 -0.0051 0
v 1.02995 -0.0150995 0
l 35 36
v 0.074683 -0.00246207 0.27923
v -0.925267 0.00753743 0.27923
l 37 38
v 0.015 -0.00405 0
v 1.01256 -0.0738791 0
l 39 40
v 0.0676485 -0.00239172 0.27923
v -0.92991 0.0674374 0.27923
l 41 42
v 0.0075 -0.003 0
v 0.997842 -0.141648 0
l 43 44
v 0.060614 -0.00189931 0.27923
v -0.929728 0.136749 0.27923
l 45 46
v 0.00375 -0.0021 0
v 0.976137 -0.235473 0
l 47 48
v 0.0570968 -0.0014069 0.27923
v -0.915291 0.231966 0.27923
l 49 50
v 0 0 0
v 0.872506 -0.488603 0
l 51 52
v 0.0535796 0 0.27923
v -0.134866 0 -0.702854
l 53 54
v 0.0553382 -0.000984828 0.27923
v -0.817168 0.487618 0.27923
l 55 56
v 0.00375 0.0021 0
v -0.868756 -0.486503 0
l 57 58
v 0.0535796 0 0.27923
v 0.926086 0.488603 0.27923
l 59 60
v 0.0075 0.003 0
v -0.964887 -0.230373 0
l 61 62
v 0.0553382 0.000984828 0.27923
v 1.02773 0.234358 0.27923
l 63 64
v 0.015 0.00405 0
v -0.975342 -0.134598 0
l 65 66
v 0.0570968 0.0014069 0.27923
v 1.04744 0.140055 0.27923
l 67 68
v 0.03 0.0051 0
v -0.967559 -0.0647291 0
l 69 70
v 0.060614 0.00189931 0.27923
v 1.05817 0.0717285 0.27923
l 71 72
v 0.045 0.00525 0
v -0.95495 -0.00474948 0
l 73 74
v 0.0676485 0.00239172 0.27923
v 1.0676 0.0123912 0.27923
l 75 76
v 0.06 0.00495 0
v -0.9398 0.024946 0
l 77 78
v 0.074683 0.00246207 0.27923
v 1.07448 -0.017534 0.27923
l 79 80
v 0.075 0.004425 0
v -0.924388 0.0394036 0
l 81 82
v 0.0817175 0.00232138 0.27923
v 1.08111 -0.0326572 0.27923
l 83 84
v 0.09 0.00375 0
v -0.908989 0.0487045 0
l 85 86
v 0.088752 0.00207517 0.27923
v 1.08774 -0.0428794 0.27923
l 87 88
v 0.105 0.002925 0
v -0.893491 0.057842 0
l 89 90
v 0.0957864 0.00175862 0.27923
v 1.09428 -0.0531583 0.27923
l 91 92
v 0.12 0.002025 0
v -0.878205 0.0619173 0
l 93 94
v 0.102821 0.00137172 0.27923
v 1.10103 -0.0585206 0.27923
l 95 96
v 0.11689 0.000492414 0.27923
v -0.881004 0.0653556 0.27923
l 97 98
v 0.135 0.00105 0
v -0.862894 0.0659131 0
l 99 100
