v 0.15 7.5e-05 0
v -0.848205 0.0599672 0
l 1 2
v 0.2692 5.265e-05 0.2553
v -0.15386 0.000131974 -0.650802
l 3 4
v 0.263935 0.00036855 0.2553
v 1.26214 -0.0595238 0.2553
l 5 6
v 0.1425 0.000525 0
v -0.855059 0.0703542 0
l 7 8
v 0.25867 0.0007371 0.2553
v 1.25623 -0.0690917 0.2553
l 9 10
v 0.135 0.00105 0
v -0.862894 0.0659131 0
l 11 12
v 0.24814 0.00142155 0.2553
v 1.24603 -0.0634417 0.2553
l 13 14
v 0.12 0.002025 0
v -0.878205 0.0619173 0
l 15 16
v 0.23761 0.00205335 0.2553
v 1.23581 -0.0578389 0.2553
l 17 18
v 0.105 0.002925 0
v -0.893491 0.057842 0
l 19 20
v 0.22708 0.0026325 0.2553
v 1.22557 -0.0522845 0.2553
l 21 22
v 0.09 0.00375 0
v -0.908989 0.0487045 0
l 23 24
v 0.21655 0.00310635 0.2553
v 1.21554 -0.0418481 0.2553
l 25 26
v 0.075 0.004425 0
v -0.924388 0.0394036 0
l 27 28
v 0.20602 0.0034749 0.2553
v 1.20541 -0.0315037 0.2553
l 29 30
v 0.06 0.00495 0
v -0.9398 0.024946 0
l 31 32
v 0.19549 0.0036855 0.2553
v 1.19529 -0.0163105 0.2553
l 33 34
v 0.045 0.00525 0
v -0.95495 -0.00474948 0
l 35 36
v 0.18496 0.0035802 0.2553
v 1.18491 0.0135797 0.2553
l 37 38
v 0.03 0.0051 0
v -0.967559 -0.0647291 0
l 39 40
v 0.17443 0.0028431 0.2553
v 1.17199 0.0726723 0.2553
l 41 42
v 0.015 0.00405 0
v -0.975342 -0.134598 0
l 43 44
v 0.169165 0.002106 0.2553
v 1.15951 0.140754 0.2553
l 45 46
v 0.0075 0.003 0
v -0.964887 -0.230373 0
l 47 48
v 0.166532 0.0014742 0.2553
v 1.13892 0.234847 0.2553
l 49 50
v 0 0 0
v 0.54024 0 0.841511
l 51 52
v 0.00375 0.0021 0
v -0.868756 -0.486503 0
l 53 54
v 0.1639 0 0.2553
v 1.03641 0.488604 0.2553
l 55 56
v 0 0 0
v 0.872506 -0.488603 0
l 57 58
v 0.166532 -0.0014742 0.2553
v -0.705974 0.487129 0.2553
l 59 60
v 0.00375 -0.0021 0
v 0.976137 -0.235473 0
l 61 62
v 0.169165 -0.002106 0.2553
v -0.803223 0.231267 0.2553
l 63 64
v 0.0075 -0.003 0
v 0.997842 -0.141648 0
l 65 66
v 0.17443 -0.0028431 0.2553
v -0.815912 0.135805 0.2553
l 67 68
v 0.015 -0.00405 0
v 1.01256 -0.0738791 0
l 69 70
v 0.18496 -0.0035802 0.2553
v -0.812599 0.066249 0.2553
l 71 72
v 0.03 -0.0051 0
v 1.02995 -0.0150995 0
l 73 74
v 0.19549 -0.0036855 0.2553
v -0.80446 0.00631399 0.2553
l 75 76
v 0.045 -0.00525 0
v 1.0448 0.014746 0
l 77 78
v 0.20602 -0.0034749 0.2553
v -0.79378 -0.0234709 0.2553
l 79 80
v 0.06 -0.00495 0
v 1.05939 0.0300286 0
l 81 82
v 0.21655 -0.00310635 0.2553
v -0.782838 -0.0380849 0.2553
l 83 84
v 0.075 -0.004425 0
v 1.07399 0.0405295 0
l 85 86
v 0.22708 -0.0026325 0.2553
v -0.771909 -0.047587 0.2553
l 87 88
v 0.09 -0.00375 0
v 1.08849 0.051167 0
l 89 90
v 0.23761 -0.00205335 0.2553
v -0.760881 -0.0569704 0.2553
l 91 92
v 0.105 -0.002925 0
v 1.1032 0.0569673 0
l 93 94
v 0.24814 -0.00142155 0.2553
v -0.750065 -0.0613138 0.2553
l 95 96
v 0.12 -0.002025 0
v 1.11789 0.0628381 0
l 97 98
v 0.25867 -0.0007371 0.2553
v -0.739224 -0.0656003 0.2553
l 99 100
v 0.135 -0.00105 0
v 1.13256 0.0687792 0
l 101 102
v 0.263935 -0.00036855 0.2553
v -0.733624 -0.0701973 0.2553
l 103 104
v 0.15 -7.5e-05 0
v 0.573059 4.32386e-06 0.906102
l 105 106
v 0.1425 -0.000525 0
v 1.1407 0.0593672 0
l 107 108
v 0.2692 -5.265e-05 0.2553
v -0.729005 -0.059945 0.2553
l 109 110
v 0.15 -7.5e-05 0
v 0.15 0.999925 0
l 111 112
v 0.2692 5.265e-05 0.2553
v 0.2692 -0.999947 0.2553
l 113 114
