# Wavefront OBJ file written 2026-08-14T13:15:55
o tailfin_normal_0

# points : 318
# faces  : 632
# zones  : 1
#   0  tailfin  (nFaces: 632)

# <points count="318">
v 0 -0 0
v 8.3135e-05 0.000615483 0
v 0.161775 0.000294201 0.321714
v 0.161735 0 0.321714
v 0.000332408 0.00122017 0
v 0.161894 0.000583242 0.321714
v 0.000747426 0.00181364 0
v 0.162092 0.000866921 0.321714
v 0.00132753 0.00239535 0
v 0.16237 0.00114498 0.321714
v 0.00207181 0.00296464 0
v 0.162725 0.0014171 0.321714
v 0.00297908 0.00352076 0
v 0.163159 0.00168292 0.321714
v 0.00404791 0.00406285 0
v 0.16367 0.00194204 0.321714
v 0.00527661 0.00458998 0
v 0.164257 0.00219401 0.321714
v 0.00666323 0.00510117 0
v 0.16492 0.00243836 0.321714
v 0.0082056 0.00559536 0
v 0.165657 0.00267458 0.321714
v 0.00990125 0.00607146 0
v 0.166468 0.00290216 0.321714
v 0.0117475 0.00652837 0
v 0.16735 0.00312056 0.321714
v 0.0137415 0.00696499 0
v 0.168303 0.00332926 0.321714
v 0.01588 0.00738021 0
v 0.169326 0.00352774 0.321714
v 0.0181597 0.007773 0
v 0.170415 0.00371549 0.321714
v 0.0205769 0.00814232 0
v 0.171571 0.00389203 0.321714
v 0.0231278 0.00848723 0
v 0.17279 0.0040569 0.321714
v 0.0258085 0.00880688 0
v 0.174072 0.00420969 0.321714
v 0.0286146 0.00910048 0
v 0.175413 0.00435003 0.321714
v 0.0315417 0.00936737 0
v 0.176812 0.0044776 0.321714
v 0.0345853 0.00960698 0
v 0.178267 0.00459214 0.321714
v 0.0377404 0.00981889 0
v 0.179775 0.00469343 0.321714
v 0.0410021 0.0100028 0
v 0.181334 0.00478134 0.321714
v 0.0443653 0.0101585 0
v 0.182942 0.00485578 0.321714
v 0.0478245 0.0102861 0
v 0.184595 0.00491674 0.321714
v 0.0513745 0.0103855 0
v 0.186292 0.00496426 0.321714
v 0.0550094 0.010457 0
v 0.188029 0.00499846 0.321714
v 0.0587237 0.0105011 0
v 0.189805 0.00501952 0.321714
v 0.0625113 0.0105182 0
v 0.191615 0.00502768 0.321714
v 0.0663664 0.0105088 0
v 0.193458 0.00502322 0.321714
v 0.0702828 0.0104738 0
v 0.19533 0.00500649 0.321714
v 0.0742544 0.010414 0
v 0.197229 0.00497789 0.321714
v 0.0782748 0.0103303 0
v 0.19915 0.00493787 0.321714
v 0.0823377 0.0102236 0
v 0.201092 0.00488689 0.321714
v 0.0864367 0.0100951 0
v 0.203052 0.00482548 0.321714
v 0.0905653 0.00994596 0
v 0.205025 0.00475417 0.321714
v 0.094717 0.00977725 0
v 0.20701 0.00467353 0.321714
v 0.0988851 0.00959024 0
v 0.209002 0.00458413 0.321714
v 0.103063 0.00938616 0
v 0.210999 0.00448659 0.321714
v 0.107245 0.00916629 0
v 0.212998 0.00438149 0.321714
v 0.111423 0.00893189 0
v 0.214995 0.00426945 0.321714
v 0.115591 0.00868424 0
v 0.216987 0.00415107 0.321714
v 0.119742 0.0084246 0
v 0.218972 0.00402696 0.321714
v 0.123871 0.00815421 0
v 0.220945 0.00389771 0.321714
v 0.12797 0.00787432 0
v 0.222905 0.00376393 0.321714
v 0.132033 0.00758615 0
v 0.224847 0.00362618 0.321714
v 0.136053 0.00729088 0
v 0.226768 0.00348504 0.321714
v 0.140025 0.00698968 0
v 0.228667 0.00334106 0.321714
v 0.143941 0.00668369 0
v 0.230539 0.0031948 0.321714
v 0.147796 0.00637404 0
v 0.232382 0.00304679 0.321714
v 0.151584 0.00606182 0
v 0.234192 0.00289755 0.321714
v 0.155298 0.0057481 0
v 0.235968 0.00274759 0.321714
v 0.158933 0.00543394 0
v 0.237705 0.00259742 0.321714
v 0.162483 0.00512037 0
v 0.239402 0.00244754 0.321714
v 0.165943 0.00480842 0
v 0.241056 0.00229843 0.321714
v 0.169306 0.0044991 0
v 0.242663 0.00215057 0.321714
v 0.172567 0.0041934 0
v 0.244222 0.00200445 0.321714
v 0.175722 0.00389231 0
v 0.24573 0.00186052 0.321714
v 0.178766 0.00359682 0
v 0.247185 0.00171928 0.321714
v 0.181693 0.00330788 0
v 0.248584 0.00158117 0.321714
v 0.184499 0.00302648 0
v 0.249926 0.00144666 0.321714
v 0.18718 0.00275356 0
v 0.251207 0.0013162 0.321714
v 0.189731 0.00249006 0
v 0.252426 0.00119025 0.321714
v 0.192148 0.00223692 0
v 0.253582 0.00106925 0.321714
v 0.194428 0.00199505 0
v 0.254672 0.000953634 0.321714
v 0.196566 0.00176534 0
v 0.255694 0.000843834 0.321714
v 0.19856 0.00154866 0
v 0.256647 0.000740261 0.321714
v 0.200407 0.00134585 0
v 0.257529 0.000643315 0.321714
v 0.202102 0.0011577 0
v 0.25834 0.000553379 0.321714
v 0.203645 0.000984969 0
v 0.259077 0.000470815 0.321714
v 0.205031 0.000828371 0
v 0.25974 0.000395962 0.321714
v 0.20626 0.000688559 0
v 0.260327 0.000329131 0.321714
v 0.207329 0.000566127 0
v 0.260838 0.000270609 0.321714
v 0.208236 0.000461602 0
v 0.261272 0.000220646 0.321714
v 0.20898 0.000375441 0
v 0.261628 0.000179461 0.321714
v 0.20956 0.000308024 0
v 0.261905 0.000147236 0.321714
v 0.209975 0.000259652 0
v 0.262103 0.000124114 0.321714
v 0.210225 0.000230541 0
v 0.262222 0.000110199 0.321714
v 0.210308 0.000220823 0
v 0.262262 0.000105554 0.321714
v 0.210225 -0.000230541 0
v 0.262222 -0.000110199 0.321714
v 0.209975 -0.000259652 0
v 0.262103 -0.000124114 0.321714
v 0.20956 -0.000308024 0
v 0.261905 -0.000147236 0.321714
v 0.20898 -0.000375441 0
v 0.261628 -0.000179461 0.321714
v 0.208236 -0.000461602 0
v 0.261272 -0.000220646 0.321714
v 0.207329 -0.000566127 0
v 0.260838 -0.000270609 0.321714
v 0.20626 -0.000688559 0
v 0.260327 -0.000329131 0.321714
v 0.205031 -0.000828371 0
v 0.25974 -0.000395962 0.321714
v 0.203645 -0.000984969 0
v 0.259077 -0.000470815 0.321714
v 0.202102 -0.0011577 0
v 0.25834 -0.000553379 0.321714
v 0.200407 -0.00134585 0
v 0.257529 -0.000643315 0.321714
v 0.19856 -0.00154866 0
v 0.256647 -0.000740261 0.321714
v 0.196566 -0.00176534 0
v 0.255694 -0.000843834 0.321714
v 0.194428 -0.00199505 0
v 0.254672 -0.000953634 0.321714
v 0.192148 -0.00223692 0
v 0.253582 -0.00106925 0.321714
v 0.189731 -0.00249006 0
v 0.252426 -0.00119025 0.321714
v 0.18718 -0.00275356 0
v 0.251207 -0.0013162 0.321714
v 0.184499 -0.00302648 0
v 0.249926 -0.00144666 0.321714
v 0.181693 -0.00330788 0
v 0.248584 -0.00158117 0.321714
v 0.178766 -0.00359682 0
v 0.247185 -0.00171928 0.321714
v 0.175722 -0.00389231 0
v 0.24573 -0.00186052 0.321714
v 0.172567 -0.0041934 0
v 0.244222 -0.00200445 0.321714
v 0.169306 -0.0044991 0
v 0.242663 -0.00215057 0.321714
v 0.165943 -0.00480842 0
v 0.241056 -0.00229843 0.321714
v 0.162483 -0.00512037 0
v 0.239402 -0.00244754 0.321714
v 0.158933 -0.00543394 0
v 0.237705 -0.00259742 0.321714
v 0.155298 -0.0057481 0
v 0.235968 -0.00274759 0.321714
v 0.151584 -0.00606182 0
v 0.234192 -0.00289755 0.321714
v 0.147796 -0.00637404 0
v 0.232382 -0.00304679 0.321714
v 0.143941 -0.00668369 0
v 0.230539 -0.0031948 0.321714
v 0.140025 -0.00698968 0
v 0.228667 -0.00334106 0.321714
v 0.136053 -0.00729088 0
v 0.226768 -0.00348504 0.321714
v 0.132033 -0.00758615 0
v 0.224847 -0.00362618 0.321714
v 0.12797 -0.00787432 0
v 0.222905 -0.00376393 0.321714
v 0.123871 -0.00815421 0
v 0.220945 -0.00389771 0.321714
v 0.119742 -0.0084246 0
v 0.218972 -0.00402696 0.321714
v 0.115591 -0.00868424 0
v 0.216987 -0.00415107 0.321714
v 0.111423 -0.00893189 0
v 0.214995 -0.00426945 0.321714
v 0.107245 -0.00916629 0
v 0.212998 -0.00438149 0.321714
v 0.103063 -0.00938616 0
v 0.210999 -0.00448659 0.321714
v 0.0988851 -0.00959024 0
v 0.209002 -0.00458413 0.321714
v 0.094717 -0.00977725 0
v 0.20701 -0.00467353 0.321714
v 0.0905653 -0.00994596 0
v 0.205025 -0.00475417 0.321714
v 0.0864367 -0.0100951 0
v 0.203052 -0.00482548 0.321714
v 0.0823377 -0.0102236 0
v 0.201092 -0.00488689 0.321714
v 0.0782748 -0.0103303 0
v 0.19915 -0.00493787 0.321714
v 0.0742544 -0.010414 0
v 0.197229 -0.00497789 0.321714
v 0.0702828 -0.0104738 0
v 0.19533 -0.00500649 0.321714
v 0.0663664 -0.0105088 0
v 0.193458 -0.00502322 0.321714
v 0.0625113 -0.0105182 0
v 0.191615 -0.00502768 0.321714
v 0.0587237 -0.0105011 0
v 0.189805 -0.00501952 0.321714
v 0.0550094 -0.010457 0
v 0.188029 -0.00499846 0.321714
v 0.0513745 -0.0103855 0
v 0.186292 -0.00496426 0.321714
v 0.0478245 -0.0102861 0
v 0.184595 -0.00491674 0.321714
v 0.0443653 -0.0101585 0
v 0.182942 -0.00485578 0.321714
v 0.0410021 -0.0100028 0
v 0.181334 -0.00478134 0.321714
v 0.0377404 -0.00981889 0
v 0.179775 -0.00469343 0.321714
v 0.0345853 -0.00960698 0
v 0.178267 -0.00459214 0.321714
v 0.0315417 -0.00936737 0
v 0.176812 -0.0044776 0.321714
v 0.0286146 -0.00910048 0
v 0.175413 -0.00435003 0.321714
v 0.0258085 -0.00880688 0
v 0.174072 -0.00420969 0.321714
v 0.0231278 -0.00848723 0
v 0.17279 -0.0040569 0.321714
v 0.0205769 -0.00814232 0
v 0.171571 -0.00389203 0.321714
v 0.0181597 -0.007773 0
v 0.170415 -0.00371549 0.321714
v 0.01588 -0.00738021 0
v 0.169326 -0.00352774 0.321714
v 0.0137415 -0.00696499 0
v 0.168303 -0.00332926 0.321714
v 0.0117475 -0.00652837 0
v 0.16735 -0.00312056 0.321714
v 0.00990125 -0.00607146 0
v 0.166468 -0.00290216 0.321714
v 0.0082056 -0.00559536 0
v 0.165657 -0.00267458 0.321714
v 0.00666323 -0.00510117 0
v 0.16492 -0.00243836 0.321714
v 0.00527661 -0.00458998 0
v 0.164257 -0.00219401 0.321714
v 0.00404791 -0.00406285 0
v 0.16367 -0.00194204 0.321714
v 0.00297908 -0.00352076 0
v 0.163159 -0.00168292 0.321714
v 0.00207181 -0.00296464 0
v 0.162725 -0.0014171 0.321714
v 0.00132753 -0.00239535 0
v 0.16237 -0.00114498 0.321714
v 0.000747426 -0.00181364 0
v 0.162092 -0.000866921 0.321714
v 0.000332408 -0.00122017 0
v 0.161894 -0.000583242 0.321714
v 8.3135e-05 -0.000615483 0
v 0.161775 -0.000294201 0.321714
v 0.104493 1.38883e-06 0
v 0.211682 6.63858e-07 0.321714
# </points>

# <faces count="632">
g tailfin
f 1 2 3
f 1 3 4
f 2 5 6
f 2 6 3
f 5 7 8
f 5 8 6
f 7 9 10
f 7 10 8
f 9 11 12
f 9 12 10
f 11 13 14
f 11 14 12
f 13 15 16
f 13 16 14
f 15 17 18
f 15 18 16
f 17 19 20
f 17 20 18
f 19 21 22
f 19 22 20
f 21 23 24
f 21 24 22
f 23 25 26
f 23 26 24
f 25 27 28
f 25 28 26
f 27 29 30
f 27 30 28
f 29 31 32
f 29 32 30
f 31 33 34
f 31 34 32
f 33 35 36
f 33 36 34
f 35 37 38
f 35 38 36
f 37 39 40
f 37 40 38
f 39 41 42
f 39 42 40
f 41 43 44
f 41 44 42
f 43 45 46
f 43 46 44
f 45 47 48
f 45 48 46
f 47 49 50
f 47 50 48
f 49 51 52
f 49 52 50
f 51 53 54
f 51 54 52
f 53 55 56
f 53 56 54
f 55 57 58
f 55 58 56
f 57 59 60
f 57 60 58
f 59 61 62
f 59 62 60
f 61 63 64
f 61 64 62
f 63 65 66
f 63 66 64
f 65 67 68
f 65 68 66
f 67 69 70
f 67 70 68
f 69 71 72
f 69 72 70
f 71 73 74
f 71 74 72
f 73 75 76
f 73 76 74
f 75 77 78
f 75 78 76
f 77 79 80
f 77 80 78
f 79 81 82
f 79 82 80
f 81 83 84
f 81 84 82
f 83 85 86
f 83 86 84
f 85 87 88
f 85 88 86
f 87 89 90
f 87 90 88
f 89 91 92
f 89 92 90
f 91 93 94
f 91 94 92
f 93 95 96
f 93 96 94
f 95 97 98
f 95 98 96
f 97 99 100
f 97 100 98
f 99 101 102
f 99 102 100
f 101 103 104
f 101 104 102
f 103 105 106
f 103 106 104
f 105 107 108
f 105 108 106
f 107 109 110
f 107 110 108
f 109 111 112
f 109 112 110
f 111 113 114
f 111 114 112
f 113 115 116
f 113 116 114
f 115 117 118
f 115 118 116
f 117 119 120
f 117 120 118
f 119 121 122
f 119 122 120
f 121 123 124
f 121 124 122
f 123 125 126
f 123 126 124
f 125 127 128
f 125 128 126
f 127 129 130
f 127 130 128
f 129 131 132
f 129 132 130
f 131 133 134
f 131 134 132
f 133 135 136
f 133 136 134
f 135 137 138
f 135 138 136
f 137 139 140
f 137 140 138
f 139 141 142
f 139 142 140
f 141 143 144
f 141 144 142
f 143 145 146
f 143 146 144
f 145 147 148
f 145 148 146
f 147 149 150
f 147 150 148
f 149 151 152
f 149 152 150
f 151 153 154
f 151 154 152
f 153 155 156
f 153 156 154
f 155 157 158
f 155 158 156
f 157 159 160
f 157 160 158
f 159 161 162
f 159 162 160
f 161 163 164
f 161 164 162
f 163 165 166
f 163 166 164
f 165 167 168
f 165 168 166
f 167 169 170
f 167 170 168
f 169 171 172
f 169 172 170
f 171 173 174
f 171 174 172
f 173 175 176
f 173 176 174
f 175 177 178
f 175 178 176
f 177 179 180
f 177 180 178
f 179 181 182
f 179 182 180
f 181 183 184
f 181 184 182
f 183 185 186
f 183 186 184
f 185 187 188
f 185 188 186
f 187 189 190
f 187 190 188
f 189 191 192
f 189 192 190
f 191 193 194
f 191 194 192
f 193 195 196
f 193 196 194
f 195 197 198
f 195 198 196
f 197 199 200
f 197 200 198
f 199 201 202
f 199 202 200
f 201 203 204
f 201 204 202
f 203 205 206
f 203 206 204
f 205 207 208
f 205 208 206
f 207 209 210
f 207 210 208
f 209 211 212
f 209 212 210
f 211 213 214
f 211 214 212
f 213 215 216
f 213 216 214
f 215 217 218
f 215 218 216
f 217 219 220
f 217 220 218
f 219 221 222
f 219 222 220
f 221 223 224
f 221 224 222
f 223 225 226
f 223 226 224
f 225 227 228
f 225 228 226
f 227 229 230
f 227 230 228
f 229 231 232
f 229 232 230
f 231 233 234
f 231 234 232
f 233 235 236
f 233 236 234
f 235 237 238
f 235 238 236
f 237 239 240
f 237 240 238
f 239 241 242
f 239 242 240
f 241 243 244
f 241 244 242
f 243 245 246
f 243 246 244
f 245 247 248
f 245 248 246
f 247 249 250
f 247 250 248
f 249 251 252
f 249 252 250
f 251 253 254
f 251 254 252
f 253 255 256
f 253 256 254
f 255 257 258
f 255 258 256
f 257 259 260
f 257 260 258
f 259 261 262
f 259 262 260
f 261 263 264
f 261 264 262
f 263 265 266
f 263 266 264
f 265 267 268
f 265 268 266
f 267 269 270
f 267 270 268
f 269 271 272
f 269 272 270
f 271 273 274
f 271 274 272
f 273 275 276
f 273 276 274
f 275 277 278
f 275 278 276
f 277 279 280
f 277 280 278
f 279 281 282
f 279 282 280
f 281 283 284
f 281 284 282
f 283 285 286
f 283 286 284
f 285 287 288
f 285 288 286
f 287 289 290
f 287 290 288
f 289 291 292
f 289 292 290
f 291 293 294
f 291 294 292
f 293 295 296
f 293 296 294
f 295 297 298
f 295 298 296
f 297 299 300
f 297 300 298
f 299 301 302
f 299 302 300
f 301 303 304
f 301 304 302
f 303 305 306
f 303 306 304
f 305 307 308
f 305 308 306
f 307 309 310
f 307 310 308
f 309 311 312
f 309 312 310
f 311 313 314
f 311 314 312
f 313 315 316
f 313 316 314
f 315 1 4
f 315 4 316
f 317 2 1
f 317 5 2
f 317 7 5
f 317 9 7
f 317 11 9
f 317 13 11
f 317 15 13
f 317 17 15
f 317 19 17
f 317 21 19
f 317 23 21
f 317 25 23
f 317 27 25
f 317 29 27
f 317 31 29
f 317 33 31
f 317 35 33
f 317 37 35
f 317 39 37
f 317 41 39
f 317 43 41
f 317 45 43
f 317 47 45
f 317 49 47
f 317 51 49
f 317 53 51
f 317 55 53
f 317 57 55
f 317 59 57
f 317 61 59
f 317 63 61
f 317 65 63
f 317 67 65
f 317 69 67
f 317 71 69
f 317 73 71
f 317 75 73
f 317 77 75
f 317 79 77
f 317 81 79
f 317 83 81
f 317 85 83
f 317 87 85
f 317 89 87
f 317 91 89
f 317 93 91
f 317 95 93
f 317 97 95
f 317 99 97
f 317 101 99
f 317 103 101
f 317 105 103
f 317 107 105
f 317 109 107
f 317 111 109
f 317 113 111
f 317 115 113
f 317 117 115
f 317 119 117
f 317 121 119
f 317 123 121
f 317 125 123
f 317 127 125
f 317 129 127
f 317 131 129
f 317 133 131
f 317 135 133
f 317 137 135
f 317 139 137
f 317 141 139
f 317 143 141
f 317 145 143
f 317 147 145
f 317 149 147
f 317 151 149
f 317 153 151
f 317 155 153
f 317 157 155
f 317 159 157
f 317 161 159
f 317 163 161
f 317 165 163
f 317 167 165
f 317 169 167
f 317 171 169
f 317 173 171
f 317 175 173
f 317 177 175
f 317 179 177
f 317 181 179
f 317 183 181
f 317 185 183
f 317 187 185
f 317 189 187
f 317 191 189
f 317 193 191
f 317 195 193
f 317 197 195
f 317 199 197
f 317 201 199
f 317 203 201
f 317 205 203
f 317 207 205
f 317 209 207
f 317 211 209
f 317 213 211
f 317 215 213
f 317 217 215
f 317 219 217
f 317 221 219
f 317 223 221
f 317 225 223
f 317 227 225
f 317 229 227
f 317 231 229
f 317 233 231
f 317 235 233
f 317 237 235
f 317 239 237
f 317 241 239
f 317 243 241
f 317 245 243
f 317 247 245
f 317 249 247
f 317 251 249
f 317 253 251
f 317 255 253
f 317 257 255
f 317 259 257
f 317 261 259
f 317 263 261
f 317 265 263
f 317 267 265
f 317 269 267
f 317 271 269
f 317 273 271
f 317 275 273
f 317 277 275
f 317 279 277
f 317 281 279
f 317 283 281
f 317 285 283
f 317 287 285
f 317 289 287
f 317 291 289
f 317 293 291
f 317 295 293
f 317 297 295
f 317 299 297
f 317 301 299
f 317 303 301
f 317 305 303
f 317 307 305
f 317 309 307
f 317 311 309
f 317 313 311
f 317 315 313
f 317 1 315
f 318 4 3
f 318 3 6
f 318 6 8
f 318 8 10
f 318 10 12
f 318 12 14
f 318 14 16
f 318 16 18
f 318 18 20
f 318 20 22
f 318 22 24
f 318 24 26
f 318 26 28
f 318 28 30
f 318 30 32
f 318 32 34
f 318 34 36
f 318 36 38
f 318 38 40
f 318 40 42
f 318 42 44
f 318 44 46
f 318 46 48
f 318 48 50
f 318 50 52
f 318 52 54
f 318 54 56
f 318 56 58
f 318 58 60
f 318 60 62
f 318 62 64
f 318 64 66
f 318 66 68
f 318 68 70
f 318 70 72
f 318 72 74
f 318 74 76
f 318 76 78
f 318 78 80
f 318 80 82
f 318 82 84
f 318 84 86
f 318 86 88
f 318 88 90
f 318 90 92
f 318 92 94
f 318 94 96
f 318 96 98
f 318 98 100
f 318 100 102
f 318 102 104
f 318 104 106
f 318 106 108
f 318 108 110
f 318 110 112
f 318 112 114
f 318 114 116
f 318 116 118
f 318 118 120
f 318 120 122
f 318 122 124
f 318 124 126
f 318 126 128
f 318 128 130
f 318 130 132
f 318 132 134
f 318 134 136
f 318 136 138
f 318 138 140
f 318 140 142
f 318 142 144
f 318 144 146
f 318 146 148
f 318 148 150
f 318 150 152
f 318 152 154
f 318 154 156
f 318 156 158
f 318 158 160
f 318 160 162
f 318 162 164
f 318 164 166
f 318 166 168
f 318 168 170
f 318 170 172
f 318 172 174
f 318 174 176
f 318 176 178
f 318 178 180
f 318 180 182
f 318 182 184
f 318 184 186
f 318 186 188
f 318 188 190
f 318 190 192
f 318 192 194
f 318 194 196
f 318 196 198
f 318 198 200
f 318 200 202
f 318 202 204
f 318 204 206
f 318 206 208
f 318 208 210
f 318 210 212
f 318 212 214
f 318 214 216
f 318 216 218
f 318 218 220
f 318 220 222
f 318 222 224
f 318 224 226
f 318 226 228
f 318 228 230
f 318 230 232
f 318 232 234
f 318 234 236
f 318 236 238
f 318 238 240
f 318 240 242
f 318 242 244
f 318 244 246
f 318 246 248
f 318 248 250
f 318 250 252
f 318 252 254
f 318 254 256
f 318 256 258
f 318 258 260
f 318 260 262
f 318 262 264
f 318 264 266
f 318 266 268
f 318 268 270
f 318 270 272
f 318 272 274
f 318 274 276
f 318 276 278
f 318 278 280
f 318 280 282
f 318 282 284
f 318 284 286
f 318 286 288
f 318 288 290
f 318 290 292
f 318 292 294
f 318 294 296
f 318 296 298
f 318 298 300
f 318 300 302
f 318 302 304
f 318 304 306
f 318 306 308
f 318 308 310
f 318 310 312
f 318 312 314
f 318 314 316
f 318 316 4
# </faces>
