v 0.15 0 0
v -0.847559 0.0698291 0
l 1 2
v 0.176253 0 0.224242
v 0.0599742 0 -0.768975
l 3 4
v 0.166942 0.000651724 0.224242
v 1.1645 -0.0691774 0.224242
l 5 6
v 0.135 -0.00105 0
v 1.13256 0.0687791 0
l 7 8
v 0.176253 0 0.224242
v -0.821306 -0.0698291 0.224242
l 9 10
v 0.12 -0.002025 0
v 1.11789 0.0628381 0
l 11 12
v 0.166942 -0.000651724 0.224242
v -0.830952 -0.0655148 0.224242
l 13 14
v 0.105 -0.002925 0
v 1.1032 0.0569673 0
l 15 16
v 0.157632 -0.0012569 0.224242
v -0.840573 -0.0611492 0.224242
l 17 18
v 0.09 -0.00375 0
v 1.08849 0.051167 0
l 19 20
v 0.148322 -0.00181552 0.224242
v -0.850169 -0.0567325 0.224242
l 21 22
v 0.075 -0.004425 0
v 1.07399 0.0405295 0
l 23 24
v 0.139011 -0.00232759 0.224242
v -0.859978 -0.0472821 0.224242
l 25 26
v 0.06 -0.00495 0
v 1.05939 0.0300286 0
l 27 28
v 0.129701 -0.00274655 0.224242
v -0.869687 -0.0377251 0.224242
l 29 30
v 0.045 -0.00525 0
v 1.0448 0.014746 0
l 31 32
v 0.120391 -0.00307241 0.224242
v -0.87941 -0.0230684 0.224242
l 33 34
v 0.03 -0.0051 0
v 1.02995 -0.0150995 0
l 35 36
v 0.11108 -0.00325862 0.224242
v -0.88887 0.00674088 0.224242
l 37 38
v 0.015 -0.00405 0
v 1.01256 -0.0738791 0
l 39 40
v 0.10177 -0.00316552 0.224242
v -0.895789 0.0666636 0.224242
l 41 42
v 0.0075 -0.003 0
v 0.997842 -0.141648 0
l 43 44
v 0.0924595 -0.00251379 0.224242
v -0.897882 0.136134 0.224242
l 45 46
v 0.00375 -0.0021 0
v 0.976137 -0.235473 0
l 47 48
v 0.0878043 -0.00186207 0.224242
v -0.884583 0.23151 0.224242
l 49 50
v 0 0 0
v 0.872506 -0.488603 0
l 51 52
v 0.0831491 0 0.224242
v -0.26452 0 -0.713375
l 53 54
v 0.0854767 -0.00130345 0.224242
v -0.787029 0.4873 0.224242
l 55 56
v 0.00375 0.0021 0
v -0.868756 -0.486503 0
l 57 58
v 0.0831491 0 0.224242
v 0.955655 0.488604 0.224242
l 59 60
v 0.0075 0.003 0
v -0.964887 -0.230373 0
l 61 62
v 0.0854767 0.00130345 0.224242
v 1.05786 0.234676 0.224242
l 63 64
v 0.015 0.00405 0
v -0.975342 -0.134598 0
l 65 66
v 0.0878043 0.00186207 0.224242
v 1.07815 0.14051 0.224242
l 67 68
v 0.03 0.0051 0
v -0.967559 -0.0647291 0
l 69 70
v 0.0924595 0.00251379 0.224242
v 1.09002 0.0723429 0.224242
l 71 72
v 0.045 0.00525 0
v -0.95495 -0.00474948 0
l 73 74
v 0.10177 0.00316552 0.224242
v 1.10172 0.013165 0.224242
l 75 76
v 0.06 0.00495 0
v -0.9398 0.024946 0
l 77 78
v 0.11108 0.00325862 0.224242
v 1.11088 -0.0167374 0.224242
l 79 80
v 0.075 0.004425 0
v -0.924388 0.0394036 0
l 81 82
v 0.120391 0.00307241 0.224242
v 1.11978 -0.0319062 0.224242
l 83 84
v 0.09 0.00375 0
v -0.908989 0.0487045 0
l 85 86
v 0.129701 0.00274655 0.224242
v 1.12869 -0.0422079 0.224242
l 87 88
v 0.105 0.002925 0
v -0.893491 0.057842 0
l 89 90
v 0.139011 0.00232759 0.224242
v 1.1375 -0.0525894 0.224242
l 91 92
v 0.12 0.002025 0
v -0.878205 0.0619173 0
l 93 94
v 0.148322 0.00181552 0.224242
v 1.14653 -0.0580768 0.224242
l 95 96
v 0.166942 0.000651724 0.224242
v -0.830952 0.0655148 0.224242
l 97 98
v 0.135 0.00105 0
v -0.862894 0.0659131 0
l 99 100
