v 0.135201 0 0.238029
v 0.197253 0 -0.760044
l 1 2
v 0.15 0 0
v -0.847559 0.0698291 0
l 3 4
v 0.127753 0.000521379 0.238029
v 1.12531 -0.0693078 0.238029
l 5 6
v 0.135 -0.00105 0
v 1.13256 0.0687791 0
l 7 8
v 0.135201 0 0.238029
v -0.862358 -0.0698292 0.238029
l 9 10
v 0.12 -0.002025 0
v 1.11789 0.0628381 0
l 11 12
v 0.127753 -0.000521379 0.238029
v -0.870141 -0.0653845 0.238029
l 13 14
v 0.105 -0.002925 0
v 1.1032 0.0569673 0
l 15 16
v 0.120305 -0.00100552 0.238029
v -0.8779 -0.0608978 0.238029
l 17 18
v 0.09 -0.00375 0
v 1.08849 0.051167 0
l 19 20
v 0.112857 -0.00145241 0.238029
v -0.885634 -0.0563694 0.238029
l 21 22
v 0.075 -0.004425 0
v 1.07399 0.0405295 0
l 23 24
v 0.105408 -0.00186207 0.238029
v -0.893581 -0.0468166 0.238029
l 25 26
v 0.06 -0.00495 0
v 1.05939 0.0300286 0
l 27 28
v 0.09796 -0.00219724 0.238029
v -0.901428 -0.0371758 0.238029
l 29 30
v 0.045 -0.00525 0
v 1.0448 0.014746 0
l 31 32
v 0.0905117 -0.00245793 0.238029
v -0.909288 -0.0224539 0.238029
l 33 34
v 0.03 -0.0051 0
v 1.02995 -0.0150995 0
l 35 36
v 0.0830635 -0.0026069 0.238029
v -0.916887 0.00739261 0.238029
l 37 38
v 0.015 -0.00405 0
v 1.01256 -0.0738791 0
l 39 40
v 0.0756152 -0.00253241 0.238029
v -0.921944 0.0672967 0.238029
l 41 42
v 0.0075 -0.003 0
v 0.997842 -0.141648 0
l 43 44
v 0.0681669 -0.00201103 0.238029
v -0.922175 0.136637 0.238029
l 45 46
v 0.00375 -0.0021 0
v 0.976137 -0.235473 0
l 47 48
v 0.0644428 -0.00148966 0.238029
v -0.907945 0.231883 0.238029
l 49 50
v 0 0 0
v 0.872506 -0.488603 0
l 51 52
v 0.0607186 0 0.238029
v -0.186455 0 -0.730942
l 53 54
v 0.0625807 -0.00104276 0.238029
v -0.809925 0.487561 0.238029
l 55 56
v 0.00375 0.0021 0
v -0.868756 -0.486503 0
l 57 58
v 0.0607186 0 0.238029
v 0.933225 0.488604 0.238029
l 59 60
v 0.0075 0.003 0
v -0.964887 -0.230373 0
l 61 62
v 0.0625807 0.00104276 0.238029
v 1.03497 0.234415 0.238029
l 63 64
v 0.015 0.00405 0
v -0.975342 -0.134598 0
l 65 66
v 0.0644428 0.00148966 0.238029
v 1.05478 0.140138 0.238029
l 67 68
v 0.03 0.0051 0
v -0.967559 -0.0647291 0
l 69 70
v 0.0681669 0.00201103 0.238029
v 1.06573 0.0718401 0.238029
l 71 72
v 0.045 0.00525 0
v -0.95495 -0.00474948 0
l 73 74
v 0.0756152 0.00253241 0.238029
v 1.07557 0.0125319 0.238029
l 75 76
v 0.06 0.00495 0
v -0.9398 0.024946 0
l 77 78
v 0.0830635 0.0026069 0.238029
v 1.08286 -0.0173891 0.238029
l 79 80
v 0.075 0.004425 0
v -0.924388 0.0394036 0
l 81 82
v 0.0905117 0.00245793 0.238029
v 1.0899 -0.0325206 0.238029
l 83 84
v 0.09 0.00375 0
v -0.908989 0.0487045 0
l 85 86
v 0.09796 0.00219724 0.238029
v 1.09695 -0.0427573 0.238029
l 87 88
v 0.105 0.002925 0
v -0.893491 0.057842 0
l 89 90
v 0.105408 0.00186207 0.238029
v 1.1039 -0.0530549 0.238029
l 91 92
v 0.12 0.002025 0
v -0.878205 0.0619173 0
l 93 94
v 0.112857 0.00145241 0.238029
v 1.11106 -0.0584399 0.238029
l 95 96
v 0.127753 0.000521379 0.238029
v -0.870141 0.0653845 0.238029
l 97 98
v 0.135 0.00105 0
v -0.862894 0.0659131 0
l 99 100
