v 0.15 7.5e-05 0
v -0.848205 0.0599672 0
l 1 2
v 0.312105 5.325e-05 0.298822
v -0.164731 0.000117228 -0.58017
l 3 4
v 0.30678 0.00037275 0.298822
v 1.30499 -0.0595193 0.298822
l 5 6
v 0.1425 0.000525 0
v -0.855059 0.0703542 0
l 7 8
v 0.301455 0.0007455 0.298822
v 1.29901 -0.0690838 0.298822
l 9 10
v 0.135 0.00105 0
v -0.862894 0.0659131 0
l 11 12
v 0.290805 0.00143775 0.298822
v 1.2887 -0.0634253 0.298822
l 13 14
v 0.12 0.002025 0
v -0.878205 0.0619173 0
l 15 16
v 0.280155 0.00207675 0.298822
v 1.27836 -0.0578157 0.298822
l 17 18
v 0.105 0.002925 0
v -0.893491 0.057842 0
l 19 20
v 0.269505 0.0026625 0.298822
v 1.268 -0.0522545 0.298822
l 21 22
v 0.09 0.00375 0
v -0.908989 0.0487045 0
l 23 24
v 0.258855 0.00314175 0.298822
v 1.25784 -0.0418127 0.298822
l 25 26
v 0.075 0.004425 0
v -0.924388 0.0394036 0
l 27 28
v 0.248205 0.0035145 0.298822
v 1.24759 -0.0314641 0.298822
l 29 30
v 0.06 0.00495 0
v -0.9398 0.024946 0
l 31 32
v 0.237555 0.0037275 0.298822
v 1.23736 -0.0162685 0.298822
l 33 34
v 0.045 0.00525 0
v -0.95495 -0.00474948 0
l 35 36
v 0.226905 0.003621 0.298822
v 1.22686 0.0136205 0.298822
l 37 38
v 0.03 0.0051 0
v -0.967559 -0.0647291 0
l 39 40
v 0.216255 0.0028755 0.298822
v 1.21381 0.0727047 0.298822
l 41 42
v 0.015 0.00405 0
v -0.975342 -0.134598 0
l 43 44
v 0.21093 0.00213 0.298822
v 1.20127 0.140778 0.298822
l 45 46
v 0.0075 0.003 0
v -0.964887 -0.230373 0
l 47 48
v 0.208268 0.001491 0.298822
v 1.18066 0.234864 0.298822
l 49 50
v 0 0 0
v 0.566838 0 0.82383
l 51 52
v 0.00375 0.0021 0
v -0.868756 -0.486503 0
l 53 54
v 0.205605 0 0.298822
v 1.07811 0.488602 0.298822
l 55 56
v 0 0 0
v 0.872506 -0.488603 0
l 57 58
v 0.208268 -0.001491 0.298822
v -0.664239 0.487111 0.298822
l 59 60
v 0.00375 -0.0021 0
v 0.976137 -0.235473 0
l 61 62
v 0.21093 -0.00213 0.298822
v -0.761457 0.231243 0.298822
l 63 64
v 0.0075 -0.003 0
v 0.997842 -0.141648 0
l 65 66
v 0.216255 -0.0028755 0.298822
v -0.774086 0.135772 0.298822
l 67 68
v 0.015 -0.00405 0
v 1.01256 -0.0738791 0
l 69 70
v 0.226905 -0.003621 0.298822
v -0.770653 0.0662082 0.298822
l 71 72
v 0.03 -0.0051 0
v 1.02995 -0.0150995 0
l 73 74
v 0.237555 -0.0037275 0.298822
v -0.762395 0.00627201 0.298822
l 75 76
v 0.045 -0.00525 0
v 1.0448 0.014746 0
l 77 78
v 0.248205 -0.0035145 0.298822
v -0.751595 -0.0235105 0.298822
l 79 80
v 0.06 -0.00495 0
v 1.05939 0.0300286 0
l 81 82
v 0.258855 -0.00314175 0.298822
v -0.740533 -0.0381204 0.298822
l 83 84
v 0.075 -0.004425 0
v 1.07399 0.0405295 0
l 85 86
v 0.269505 -0.0026625 0.298822
v -0.729484 -0.047617 0.298822
l 87 88
v 0.09 -0.00375 0
v 1.08849 0.051167 0
l 89 90
v 0.280155 -0.00207675 0.298822
v -0.718335 -0.0569937 0.298822
l 91 92
v 0.105 -0.002925 0
v 1.1032 0.0569673 0
l 93 94
v 0.290805 -0.00143775 0.298822
v -0.707399 -0.0613302 0.298822
l 95 96
v 0.12 -0.002025 0
v 1.11789 0.0628381 0
l 97 98
v 0.301455 -0.0007455 0.298822
v -0.696439 -0.0656086 0.298822
l 99 100
v 0.135 -0.00105 0
v 1.13256 0.0687792 0
l 101 102
v 0.30678 -0.00037275 0.298822
v -0.690779 -0.070202 0.298822
l 103 104
v 0.15 -7.5e-05 0
v 0.626836 -1.1022e-05 0.878992
l 105 106
v 0.1425 -0.000525 0
v 1.1407 0.0593672 0
l 107 108
v 0.312105 -5.325e-05 0.298822
v -0.686099 -0.0599453 0.298822
l 109 110
v 0.15 -7.5e-05 0
v 0.15 0.999925 0
l 111 112
v 0.312105 5.325e-05 0.298822
v 0.312105 -0.999947 0.298822
l 113 114
