v 0.15 0 0
v -0.847559 0.0698291 0
l 1 2
v 0.251649 0 0.369872
v -0.0133474 0 -0.594377
l 3 4
v 0.242131 0.000666207 0.369872
v 1.23969 -0.0691628 0.369872
l 5 6
v 0.135 -0.00105 0
v 1.13256 0.0687791 0
l 7 8
v 0.251649 0 0.369872
v -0.74591 -0.069829 0.369872
l 9 10
v 0.12 -0.002025 0
v 1.11789 0.0628381 0
l 11 12
v 0.242131 -0.000666207 0.369872
v -0.755763 -0.0655294 0.369872
l 13 14
v 0.105 -0.002925 0
v 1.1032 0.0569673 0
l 15 16
v 0.232614 -0.00128483 0.369872
v -0.765591 -0.0611771 0.369872
l 17 18
v 0.09 -0.00375 0
v 1.08849 0.051167 0
l 19 20
v 0.223097 -0.00185586 0.369872
v -0.775394 -0.0567729 0.369872
l 21 22
v 0.075 -0.004425 0
v 1.07399 0.0405295 0
l 23 24
v 0.21358 -0.00237931 0.369872
v -0.785409 -0.0473338 0.369872
l 25 26
v 0.06 -0.00495 0
v 1.05939 0.0300286 0
l 27 28
v 0.204062 -0.00280759 0.369872
v -0.795326 -0.0377862 0.369872
l 29 30
v 0.045 -0.00525 0
v 1.0448 0.014746 0
l 31 32
v 0.194545 -0.00314069 0.369872
v -0.805255 -0.0231367 0.369872
l 33 34
v 0.03 -0.0051 0
v 1.02995 -0.0150995 0
l 35 36
v 0.185028 -0.00333103 0.369872
v -0.814922 0.00666846 0.369872
l 37 38
v 0.015 -0.00405 0
v 1.01256 -0.0738791 0
l 39 40
v 0.175511 -0.00323586 0.369872
v -0.822048 0.0665933 0.369872
l 41 42
v 0.0075 -0.003 0
v 0.997842 -0.141648 0
l 43 44
v 0.165994 -0.00256966 0.369872
v -0.824348 0.136078 0.369872
l 45 46
v 0.00375 -0.0021 0
v 0.976137 -0.235473 0
l 47 48
v 0.161235 -0.00190345 0.369872
v -0.811152 0.231469 0.369872
l 49 50
v 0 0 0
v 0.872506 -0.488603 0
l 51 52
v 0.156476 0 0.369872
v -0.233147 0 -0.551102
l 53 54
v 0.158856 -0.00133241 0.369872
v -0.713649 0.487273 0.369872
l 55 56
v 0.00375 0.0021 0
v -0.868756 -0.486503 0
l 57 58
v 0.156476 0 0.369872
v 1.02898 0.488605 0.369872
l 59 60
v 0.0075 0.003 0
v -0.964887 -0.230373 0
l 61 62
v 0.158856 0.00133241 0.369872
v 1.13124 0.234705 0.369872
l 63 64
v 0.015 0.00405 0
v -0.975342 -0.134598 0
l 65 66
v 0.161235 0.00190345 0.369872
v 1.15158 0.140551 0.369872
l 67 68
v 0.03 0.0051 0
v -0.967559 -0.0647291 0
l 69 70
v 0.165994 0.00256966 0.369872
v 1.16355 0.0723988 0.369872
l 71 72
v 0.045 0.00525 0
v -0.95495 -0.00474948 0
l 73 74
v 0.175511 0.00323586 0.369872
v 1.17546 0.0132354 0.369872
l 75 76
v 0.06 0.00495 0
v -0.9398 0.024946 0
l 77 78
v 0.185028 0.00333103 0.369872
v 1.18483 -0.0166649 0.369872
l 79 80
v 0.075 0.004425 0
v -0.924388 0.0394036 0
l 81 82
v 0.194545 0.00314069 0.369872
v 1.19393 -0.0318379 0.369872
l 83 84
v 0.09 0.00375 0
v -0.908989 0.0487045 0
l 85 86
v 0.204062 0.00280759 0.369872
v 1.20305 -0.0421469 0.369872
l 87 88
v 0.105 0.002925 0
v -0.893491 0.057842 0
l 89 90
v 0.21358 0.00237931 0.369872
v 1.21207 -0.0525377 0.369872
l 91 92
v 0.12 0.002025 0
v -0.878205 0.0619173 0
l 93 94
v 0.223097 0.00185586 0.369872
v 1.2213 -0.0580364 0.369872
l 95 96
v 0.242131 0.000666207 0.369872
v -0.755763 0.0655294 0.369872
l 97 98
v 0.135 0.00105 0
v -0.862894 0.0659131 0
l 99 100
