v 0.15 0 0
v -0.847559 0.0698291 0
l 1 2
v 0.167842 0 0.273291
v 0.102696 0 -0.724585
l 3 4
v 0.159359 0.000593793 0.273291
v 1.15692 -0.0692354 0.273291
l 5 6
v 0.135 -0.00105 0
v 1.13256 0.0687791 0
l 7 8
v 0.167842 0 0.273291
v -0.829717 -0.0698292 0.273291
l 9 10
v 0.12 -0.002025 0
v 1.11789 0.0628381 0
l 11 12
v 0.159359 -0.000593793 0.273291
v -0.838535 -0.0654569 0.273291
l 13 14
v 0.105 -0.002925 0
v 1.1032 0.0569673 0
l 15 16
v 0.150876 -0.00114517 0.273291
v -0.847329 -0.0610374 0.273291
l 17 18
v 0.09 -0.00375 0
v 1.08849 0.051167 0
l 19 20
v 0.142393 -0.00165414 0.273291
v -0.856098 -0.0565712 0.273291
l 21 22
v 0.075 -0.004425 0
v 1.07399 0.0405295 0
l 23 24
v 0.133911 -0.00212069 0.273291
v -0.865078 -0.0470752 0.273291
l 25 26
v 0.06 -0.00495 0
v 1.05939 0.0300286 0
l 27 28
v 0.125428 -0.00250241 0.273291
v -0.87396 -0.037481 0.273291
l 29 30
v 0.045 -0.00525 0
v 1.0448 0.014746 0
l 31 32
v 0.116945 -0.00279931 0.273291
v -0.882855 -0.0227953 0.273291
l 33 34
v 0.03 -0.0051 0
v 1.02995 -0.0150995 0
l 35 36
v 0.108462 -0.00296897 0.273291
v -0.891488 0.00703055 0.273291
l 37 38
v 0.015 -0.00405 0
v 1.01256 -0.0738791 0
l 39 40
v 0.0999796 -0.00288414 0.273291
v -0.897579 0.066945 0.273291
l 41 42
v 0.0075 -0.003 0
v 0.997842 -0.141648 0
l 43 44
v 0.0914969 -0.00229034 0.273291
v -0.898845 0.136358 0.273291
l 45 46
v 0.00375 -0.0021 0
v 0.976137 -0.235473 0
l 47 48
v 0.0872555 -0.00169655 0.273291
v -0.885132 0.231676 0.273291
l 49 50
v 0 0 0
v 0.872506 -0.488603 0
l 51 52
v 0.0830141 0 0.273291
v -0.207631 0 -0.68354
l 53 54
v 0.0851348 -0.00118759 0.273291
v -0.787371 0.487416 0.273291
l 55 56
v 0.00375 0.0021 0
v -0.868756 -0.486503 0
l 57 58
v 0.0830141 0 0.273291
v 0.95552 0.488604 0.273291
l 59 60
v 0.0075 0.003 0
v -0.964887 -0.230373 0
l 61 62
v 0.0851348 0.00118759 0.273291
v 1.05752 0.234561 0.273291
l 63 64
v 0.015 0.00405 0
v -0.975342 -0.134598 0
l 65 66
v 0.0872555 0.00169655 0.273291
v 1.0776 0.140344 0.273291
l 67 68
v 0.03 0.0051 0
v -0.967559 -0.0647291 0
l 69 70
v 0.0914969 0.00229034 0.273291
v 1.08906 0.0721194 0.273291
l 71 72
v 0.045 0.00525 0
v -0.95495 -0.00474948 0
l 73 74
v 0.0999796 0.00288414 0.273291
v 1.09993 0.0128837 0.273291
l 75 76
v 0.06 0.00495 0
v -0.9398 0.024946 0
l 77 78
v 0.108462 0.00296897 0.273291
v 1.10826 -0.017027 0.273291
l 79 80
v 0.075 0.004425 0
v -0.924388 0.0394036 0
l 81 82
v 0.116945 0.00279931 0.273291
v 1.11633 -0.0321793 0.273291
l 83 84
v 0.09 0.00375 0
v -0.908989 0.0487045 0
l 85 86
v 0.125428 0.00250241 0.273291
v 1.12442 -0.0424521 0.273291
l 87 88
v 0.105 0.002925 0
v -0.893491 0.057842 0
l 89 90
v 0.133911 0.00212069 0.273291
v 1.1324 -0.0527963 0.273291
l 91 92
v 0.12 0.002025 0
v -0.878205 0.0619173 0
l 93 94
v 0.142393 0.00165414 0.273291
v 1.1406 -0.0582381 0.273291
l 95 96
v 0.159359 0.000593793 0.273291
v -0.838535 0.0654569 0.273291
l 97 98
v 0.135 0.00105 0
v -0.862894 0.0659131 0
l 99 100
