# Wavefront OBJ file written 2026-10-05T21:00:55
o tailfin_edgeMesh

# points : 54
# lines  : 57

# <points count="54">
v 0.15 7.5e-05 0
v 0.211513 4.3575e-05 0.345053
v 0.124363 0 0.345053
v 0 0 0
v 0.211513 -4.3575e-05 0.345053
v 0.15 -7.5e-05 0
v 0.1425 0.000525 0
v 0.207155 0.000305025 0.345053
v 0.135 0.00105 0
v 0.202798 0.00061005 0.345053
v 0.12 0.002025 0
v 0.194083 0.00117653 0.345053
v 0.105 0.002925 0
v 0.185368 0.00169943 0.345053
v 0.09 0.00375 0
v 0.176653 0.00217875 0.345053
v 0.075 0.004425 0
v 0.167938 0.00257093 0.345053
v 0.06 0.00495 0
v 0.159223 0.00287595 0.345053
v 0.045 0.00525 0
v 0.150508 0.00305025 0.345053
v 0.03 0.0051 0
v 0.141793 0.0029631 0.345053
v 0.015 0.00405 0
v 0.133078 0.00235305 0.345053
v 0.0075 0.003 0
v 0.12872 0.001743 0.345053
v 0.00375 0.0021 0
v 0.126542 0.0012201 0.345053
v 0.00375 -0.0021 0
v 0.126542 -0.0012201 0.345053
v 0.0075 -0.003 0
v 0.12872 -0.001743 0.345053
v 0.015 -0.00405 0
v 0.133078 -0.00235305 0.345053
v 0.03 -0.0051 0
v 0.141793 -0.0029631 0.345053
v 0.045 -0.00525 0
v 0.150508 -0.00305025 0.345053
v 0.06 -0.00495 0
v 0.159223 -0.00287595 0.345053
v 0.075 -0.004425 0
v 0.167938 -0.00257093 0.345053
v 0.09 -0.00375 0
v 0.176653 -0.00217875 0.345053
v 0.105 -0.002925 0
v 0.185368 -0.00169943 0.345053
v 0.12 -0.002025 0
v 0.194083 -0.00117653 0.345053
v 0.135 -0.00105 0
v 0.202798 -0.00061005 0.345053
v 0.1425 -0.000525 0
v 0.207155 -0.000305025 0.345053
# </points>

# <edges count="57">
l 1 7
l 2 1
l 8 2
l 7 9
l 10 8
l 9 11
l 12 10
l 11 13
l 14 12
l 13 15
l 16 14
l 15 17
l 18 16
l 17 19
l 20 18
l 19 21
l 22 20
l 21 23
l 24 22
l 23 25
l 26 24
l 25 27
l 28 26
l 27 29
l 30 28
l 4 3
l 29 4
l 3 30
l 4 31
l 32 3
l 31 33
l 34 32
l 33 35
l 36 34
l 35 37
l 38 36
l 37 39
l 40 38
l 39 41
l 42 40
l 41 43
l 44 42
l 43 45
l 46 44
l 45 47
l 48 46
l 47 49
l 50 48
l 49 51
l 52 50
l 51 53
l 54 52
l 6 5
l 53 6
l 5 54
l 6 1
l 2 5
# </edges>
