v 0.122246 0 0.353017
v 0.200623 0 -0.643907
l 1 2
v 0.15 0 0
v -0.847559 0.0698291 0
l 3 4
v 0.116246 0.00042 0.353017
v 1.11381 -0.0694091 0.353017
l 5 6
v 0.135 -0.00105 0
v 1.13256 0.0687791 0
l 7 8
v 0.122246 0 0.353017
v -0.875313 -0.0698291 0.353017
l 9 10
v 0.12 -0.002025 0
v 1.11789 0.0628381 0
l 11 12
v 0.116246 -0.00042 0.353017
v -0.881648 -0.0652832 0.353017
l 13 14
v 0.105 -0.002925 0
v 1.1032 0.0569673 0
l 15 16
v 0.110246 -0.00081 0.353017
v -0.887958 -0.0607023 0.353017
l 17 18
v 0.09 -0.00375 0
v 1.08849 0.051167 0
l 19 20
v 0.104246 -0.00117 0.353017
v -0.894244 -0.056087 0.353017
l 21 22
v 0.075 -0.004425 0
v 1.07399 0.0405295 0
l 23 24
v 0.0982465 -0.0015 0.353017
v -0.900743 -0.0464545 0.353017
l 25 26
v 0.06 -0.00495 0
v 1.05939 0.0300286 0
l 27 28
v 0.0922465 -0.00177 0.353017
v -0.907142 -0.0367485 0.353017
l 29 30
v 0.045 -0.00525 0
v 1.0448 0.014746 0
l 31 32
v 0.0862465 -0.00198 0.353017
v -0.913554 -0.021976 0.353017
l 33 34
v 0.03 -0.0051 0
v 1.02995 -0.0150995 0
l 35 36
v 0.0802465 -0.0021 0.353017
v -0.919704 0.0078995 0.353017
l 37 38
v 0.015 -0.00405 0
v 1.01256 -0.0738791 0
l 39 40
v 0.0742465 -0.00204 0.353017
v -0.923313 0.0677891 0.353017
l 41 42
v 0.0075 -0.003 0
v 0.997842 -0.141648 0
l 43 44
v 0.0682465 -0.00162 0.353017
v -0.922095 0.137028 0.353017
l 45 46
v 0.00375 -0.0021 0
v 0.976137 -0.235473 0
l 47 48
v 0.0652465 -0.0012 0.353017
v -0.907141 0.232174 0.353017
l 49 50
v 0 0 0
v 0.872506 -0.488603 0
l 51 52
v 0.0622465 0 0.353017
v -0.111402 0 -0.631791
l 53 54
v 0.0637465 -0.00084 0.353017
v -0.80876 0.487763 0.353017
l 55 56
v 0.00375 0.0021 0
v -0.868756 -0.486503 0
l 57 58
v 0.0622465 0 0.353017
v 0.934753 0.488603 0.353017
l 59 60
v 0.0075 0.003 0
v -0.964887 -0.230373 0
l 61 62
v 0.0637465 0.00084 0.353017
v 1.03613 0.234214 0.353017
l 63 64
v 0.015 0.00405 0
v -0.975342 -0.134598 0
l 65 66
v 0.0652465 0.0012 0.353017
v 1.05559 0.139848 0.353017
l 67 68
v 0.03 0.0051 0
v -0.967559 -0.0647291 0
l 69 70
v 0.0682465 0.00162 0.353017
v 1.06581 0.0714491 0.353017
l 71 72
v 0.045 0.00525 0
v -0.95495 -0.00474948 0
l 73 74
v 0.0742465 0.00204 0.353017
v 1.0742 0.0120395 0.353017
l 75 76
v 0.06 0.00495 0
v -0.9398 0.024946 0
l 77 78
v 0.0802465 0.0021 0.353017
v 1.08005 -0.017896 0.353017
l 79 80
v 0.075 0.004425 0
v -0.924388 0.0394036 0
l 81 82
v 0.0862465 0.00198 0.353017
v 1.08563 -0.0329985 0.353017
l 83 84
v 0.09 0.00375 0
v -0.908989 0.0487045 0
l 85 86
v 0.0922465 0.00177 0.353017
v 1.09124 -0.0431845 0.353017
l 87 88
v 0.105 0.002925 0
v -0.893491 0.057842 0
l 89 90
v 0.0982465 0.0015 0.353017
v 1.09674 -0.053417 0.353017
l 91 92
v 0.12 0.002025 0
v -0.878205 0.0619173 0
l 93 94
v 0.104246 0.00117 0.353017
v 1.10245 -0.0587223 0.353017
l 95 96
v 0.116246 0.00042 0.353017
v -0.881648 0.0652832 0.353017
l 97 98
v 0.135 0.00105 0
v -0.862894 0.0659131 0
l 99 100
