v 0.15 0 0
v -0.847559 0.0698291 0
l 1 2
v 0.185283 0 0.363933
v 0.0887866 0 -0.631401
l 3 4
v 0.177214 0.000564828 0.363933
v 1.17477 -0.0692642 0.363933
l 5 6
v 0.135 -0.00105 0
v 1.13256 0.0687791 0
l 7 8
v 0.185283 0 0.363933
v -0.812276 -0.069829 0.363933
l 9 10
v 0.12 -0.002025 0
v 1.11789 0.0628381 0
l 11 12
v 0.177214 -0.000564828 0.363933
v -0.82068 -0.065428 0.363933
l 13 14
v 0.105 -0.002925 0
v 1.1032 0.0569673 0
l 15 16
v 0.169145 -0.00108931 0.363933
v -0.82906 -0.0609816 0.363933
l 17 18
v 0.09 -0.00375 0
v 1.08849 0.051167 0
l 19 20
v 0.161076 -0.00157345 0.363933
v -0.837415 -0.0564905 0.363933
l 21 22
v 0.075 -0.004425 0
v 1.07399 0.0405295 0
l 23 24
v 0.153007 -0.00201724 0.363933
v -0.845982 -0.0469717 0.363933
l 25 26
v 0.06 -0.00495 0
v 1.05939 0.0300286 0
l 27 28
v 0.144938 -0.00238034 0.363933
v -0.85445 -0.0373589 0.363933
l 29 30
v 0.045 -0.00525 0
v 1.0448 0.014746 0
l 31 32
v 0.136869 -0.00266276 0.363933
v -0.862931 -0.0226588 0.363933
l 33 34
v 0.03 -0.0051 0
v 1.02995 -0.0150995 0
l 35 36
v 0.1288 -0.00282414 0.363933
v -0.87115 0.00717534 0.363933
l 37 38
v 0.015 -0.00405 0
v 1.01256 -0.0738791 0
l 39 40
v 0.120731 -0.00274345 0.363933
v -0.876828 0.0670857 0.363933
l 41 42
v 0.0075 -0.003 0
v 0.997842 -0.141648 0
l 43 44
v 0.112662 -0.00217862 0.363933
v -0.87768 0.136469 0.363933
l 45 46
v 0.00375 -0.0021 0
v 0.976137 -0.235473 0
l 47 48
v 0.108628 -0.00161379 0.363933
v -0.86376 0.231759 0.363933
l 49 50
v 0 0 0
v 0.872506 -0.488603 0
l 51 52
v 0.104593 0 0.363933
v -0.171623 0 -0.597163
l 53 54
v 0.10661 -0.00112966 0.363933
v -0.765895 0.487474 0.363933
l 55 56
v 0.00375 0.0021 0
v -0.868756 -0.486503 0
l 57 58
v 0.104593 0 0.363933
v 0.977099 0.488604 0.363933
l 59 60
v 0.0075 0.003 0
v -0.964887 -0.230373 0
l 61 62
v 0.10661 0.00112966 0.363933
v 1.079 0.234502 0.363933
l 63 64
v 0.015 0.00405 0
v -0.975342 -0.134598 0
l 65 66
v 0.108628 0.00161379 0.363933
v 1.09897 0.140262 0.363933
l 67 68
v 0.03 0.0051 0
v -0.967559 -0.0647291 0
l 69 70
v 0.112662 0.00217862 0.363933
v 1.11022 0.0720078 0.363933
l 71 72
v 0.045 0.00525 0
v -0.95495 -0.00474948 0
l 73 74
v 0.120731 0.00274345 0.363933
v 1.12068 0.0127429 0.363933
l 75 76
v 0.06 0.00495 0
v -0.9398 0.024946 0
l 77 78
v 0.1288 0.00282414 0.363933
v 1.1286 -0.0171719 0.363933
l 79 80
v 0.075 0.004425 0
v -0.924388 0.0394036 0
l 81 82
v 0.136869 0.00266276 0.363933
v 1.13626 -0.0323158 0.363933
l 83 84
v 0.09 0.00375 0
v -0.908989 0.0487045 0
l 85 86
v 0.144938 0.00238034 0.363933
v 1.14393 -0.0425742 0.363933
l 87 88
v 0.105 0.002925 0
v -0.893491 0.057842 0
l 89 90
v 0.153007 0.00201724 0.363933
v 1.1515 -0.0528998 0.363933
l 91 92
v 0.12 0.002025 0
v -0.878205 0.0619173 0
l 93 94
v 0.161076 0.00157345 0.363933
v 1.15928 -0.0583189 0.363933
l 95 96
v 0.177214 0.000564828 0.363933
v -0.82068 0.065428 0.363933
l 97 98
v 0.135 0.00105 0
v -0.862894 0.0659131 0
l 99 100
