# Wavefront OBJ file written 2026-08-27T03:19:20
o tailfin_edgeMesh

# points : 48
# lines  : 50

# <points count="48">
v 0.15 0 0
v 0.185283 0 0.363933
v 0 0 0
v 0.104593 0 0.363933
v 0.135 0.00105 0
v 0.177214 0.000564828 0.363933
v 0.135 -0.00105 0
v 0.177214 -0.000564828 0.363933
v 0.12 -0.002025 0
v 0.169145 -0.00108931 0.363933
v 0.105 -0.002925 0
v 0.161076 -0.00157345 0.363933
v 0.09 -0.00375 0
v 0.153007 -0.00201724 0.363933
v 0.075 -0.004425 0
v 0.144938 -0.00238034 0.363933
v 0.06 -0.00495 0
v 0.136869 -0.00266276 0.363933
v 0.045 -0.00525 0
v 0.1288 -0.00282414 0.363933
v 0.03 -0.0051 0
v 0.120731 -0.00274345 0.363933
v 0.015 -0.00405 0
v 0.112662 -0.00217862 0.363933
v 0.0075 -0.003 0
v 0.108628 -0.00161379 0.363933
v 0.00375 -0.0021 0
v 0.10661 -0.00112966 0.363933
v 0.00375 0.0021 0
v 0.10661 0.00112966 0.363933
v 0.0075 0.003 0
v 0.108628 0.00161379 0.363933
v 0.015 0.00405 0
v 0.112662 0.00217862 0.363933
v 0.03 0.0051 0
v 0.120731 0.00274345 0.363933
v 0.045 0.00525 0
v 0.1288 0.00282414 0.363933
v 0.06 0.00495 0
v 0.136869 0.00266276 0.363933
v 0.075 0.004425 0
v 0.144938 0.00238034 0.363933
v 0.09 0.00375 0
v 0.153007 0.00201724 0.363933
v 0.105 0.002925 0
v 0.161076 0.00157345 0.363933
v 0.12 0.002025 0
v 0.169145 0.00108931 0.363933
# </points>

# <edges count="50">
l 1 5
l 2 1
l 6 2
l 7 1
l 2 8
l 9 7
l 8 10
l 11 9
l 10 12
l 13 11
l 12 14
l 15 13
l 14 16
l 17 15
l 16 18
l 19 17
l 18 20
l 21 19
l 20 22
l 23 21
l 22 24
l 25 23
l 24 26
l 27 25
l 26 28
l 3 27
l 4 3
l 28 4
l 29 3
l 4 30
l 31 29
l 30 32
l 33 31
l 32 34
l 35 33
l 34 36
l 37 35
l 36 38
l 39 37
l 38 40
l 41 39
l 40 42
l 43 41
l 42 44
l 45 43
l 44 46
l 47 45
l 46 48
l 6 48
l 5 47
# </edges>
