v 0.15 0 0
v -0.847559 0.0698291 0
l 1 2
v 0.160666 0 0.186287
v 0.103505 0 -0.812078
l 3 4
v 0.153838 0.000477931 0.186287
v 1.1514 -0.0693511 0.186287
l 5 6
v 0.135 -0.00105 0
v 1.13256 0.0687791 0
l 7 8
v 0.160666 0 0.186287
v -0.836893 -0.0698291 0.186287
l 9 10
v 0.12 -0.002025 0
v 1.11789 0.0628381 0
l 11 12
v 0.153838 -0.000477931 0.186287
v -0.844056 -0.0653411 0.186287
l 13 14
v 0.105 -0.002925 0
v 1.1032 0.0569673 0
l 15 16
v 0.147011 -0.000921724 0.186287
v -0.851194 -0.060814 0.186287
l 17 18
v 0.09 -0.00375 0
v 1.08849 0.051167 0
l 19 20
v 0.140183 -0.00133138 0.186287
v -0.858308 -0.0562485 0.186287
l 21 22
v 0.075 -0.004425 0
v 1.07399 0.0405295 0
l 23 24
v 0.133355 -0.0017069 0.186287
v -0.865634 -0.0466614 0.186287
l 25 26
v 0.06 -0.00495 0
v 1.05939 0.0300286 0
l 27 28
v 0.126528 -0.00201414 0.186287
v -0.87286 -0.0369927 0.186287
l 29 30
v 0.045 -0.00525 0
v 1.0448 0.014746 0
l 31 32
v 0.1197 -0.0022531 0.186287
v -0.8801 -0.0222491 0.186287
l 33 34
v 0.03 -0.0051 0
v 1.02995 -0.0150995 0
l 35 36
v 0.112873 -0.00238966 0.186287
v -0.887077 0.00760986 0.186287
l 37 38
v 0.015 -0.00405 0
v 1.01256 -0.0738791 0
l 39 40
v 0.106045 -0.00232138 0.186287
v -0.891514 0.0675078 0.186287
l 41 42
v 0.0075 -0.003 0
v 0.997842 -0.141648 0
l 43 44
v 0.0992175 -0.00184345 0.186287
v -0.891124 0.136804 0.186287
l 45 46
v 0.00375 -0.0021 0
v 0.976137 -0.235473 0
l 47 48
v 0.0958037 -0.00136552 0.186287
v -0.876583 0.232008 0.186287
l 49 50
v 0 0 0
v 0.872506 -0.488603 0
l 51 52
v 0.0923899 0 0.186287
v -0.351922 0 -0.709585
l 53 54
v 0.0940968 -0.000955862 0.186287
v -0.778409 0.487647 0.186287
l 55 56
v 0.00375 0.0021 0
v -0.868756 -0.486503 0
l 57 58
v 0.0923899 0 0.186287
v 0.964896 0.488603 0.186287
l 59 60
v 0.0075 0.003 0
v -0.964887 -0.230373 0
l 61 62
v 0.0940968 0.000955862 0.186287
v 1.06648 0.23433 0.186287
l 63 64
v 0.015 0.00405 0
v -0.975342 -0.134598 0
l 65 66
v 0.0958037 0.00136552 0.186287
v 1.08615 0.140013 0.186287
l 67 68
v 0.03 0.0051 0
v -0.967559 -0.0647291 0
l 69 70
v 0.0992175 0.00184345 0.186287
v 1.09678 0.0716726 0.186287
l 71 72
v 0.045 0.00525 0
v -0.95495 -0.00474948 0
l 73 74
v 0.106045 0.00232138 0.186287
v 1.106 0.0123209 0.186287
l 75 76
v 0.06 0.00495 0
v -0.9398 0.024946 0
l 77 78
v 0.112873 0.00238966 0.186287
v 1.11267 -0.0176063 0.186287
l 79 80
v 0.075 0.004425 0
v -0.924388 0.0394036 0
l 81 82
v 0.1197 0.0022531 0.186287
v 1.11909 -0.0327255 0.186287
l 83 84
v 0.09 0.00375 0
v -0.908989 0.0487045 0
l 85 86
v 0.126528 0.00201414 0.186287
v 1.12552 -0.0429403 0.186287
l 87 88
v 0.105 0.002925 0
v -0.893491 0.057842 0
l 89 90
v 0.133355 0.0017069 0.186287
v 1.13185 -0.0532102 0.186287
l 91 92
v 0.12 0.002025 0
v -0.878205 0.0619173 0
l 93 94
v 0.140183 0.00133138 0.186287
v 1.13839 -0.0585609 0.186287
l 95 96
v 0.153838 0.000477931 0.186287
v -0.844056 0.0653411 0.186287
l 97 98
v 0.135 0.00105 0
v -0.862894 0.0659131 0
l 99 100
