# Wavefront OBJ file written 2026-10-05T23:29:02
o tailfin_edgeMesh

# points : 54
# lines  : 57

# <points count="54">
v 0.15 7.5e-05 0
v 0.243172 4.785e-05 0.262899
v 0.147472 0 0.262899
v 0 0 0
v 0.243172 -4.785e-05 0.262899
v 0.15 -7.5e-05 0
v 0.1425 0.000525 0
v 0.238387 0.00033495 0.262899
v 0.135 0.00105 0
v 0.233602 0.0006699 0.262899
v 0.12 0.002025 0
v 0.224032 0.00129195 0.262899
v 0.105 0.002925 0
v 0.214462 0.00186615 0.262899
v 0.09 0.00375 0
v 0.204892 0.0023925 0.262899
v 0.075 0.004425 0
v 0.195322 0.00282315 0.262899
v 0.06 0.00495 0
v 0.185752 0.0031581 0.262899
v 0.045 0.00525 0
v 0.176182 0.0033495 0.262899
v 0.03 0.0051 0
v 0.166612 0.0032538 0.262899
v 0.015 0.00405 0
v 0.157042 0.0025839 0.262899
v 0.0075 0.003 0
v 0.152257 0.001914 0.262899
v 0.00375 0.0021 0
v 0.149864 0.0013398 0.262899
v 0.00375 -0.0021 0
v 0.149864 -0.0013398 0.262899
v 0.0075 -0.003 0
v 0.152257 -0.001914 0.262899
v 0.015 -0.00405 0
v 0.157042 -0.0025839 0.262899
v 0.03 -0.0051 0
v 0.166612 -0.0032538 0.262899
v 0.045 -0.00525 0
v 0.176182 -0.0033495 0.262899
v 0.06 -0.00495 0
v 0.185752 -0.0031581 0.262899
v 0.075 -0.004425 0
v 0.195322 -0.00282315 0.262899
v 0.09 -0.00375 0
v 0.204892 -0.0023925 0.262899
v 0.105 -0.002925 0
v 0.214462 -0.00186615 0.262899
v 0.12 -0.002025 0
v 0.224032 -0.00129195 0.262899
v 0.135 -0.00105 0
v 0.233602 -0.0006699 0.262899
v 0.1425 -0.000525 0
v 0.238387 -0.00033495 0.262899
# </points>

# <edges count="57">
l 1 7
l 2 1
l 8 2
l 7 9
l 10 8
l 9 11
l 12 10
l 11 13
l 14 12
l 13 15
l 16 14
l 15 17
l 18 16
l 17 19
l 20 18
l 19 21
l 22 20
l 21 23
l 24 22
l 23 25
l 26 24
l 25 27
l 28 26
l 27 29
l 30 28
l 4 3
l 29 4
l 3 30
l 4 31
l 32 3
l 31 33
l 34 32
l 33 35
l 36 34
l 35 37
l 38 36
l 37 39
l 40 38
l 39 41
l 42 40
l 41 43
l 44 42
l 43 45
l 46 44
l 45 47
l 48 46
l 47 49
l 50 48
l 49 51
l 52 50
l 51 53
l 54 52
l 6 5
l 53 6
l 5 54
l 6 1
l 2 5
# </edges>
